{"glyphs":{"0":{"ha":1111,"x_min":69,"x_max":1042,"o":"m 139 139 l 69 139 l 69 833 l 139 833 l 139 972 l 417 972 l 417 1111 l 694 1111 l 694 972 l 972 972 l 972 833 l 1042 833 l 1042 139 l 972 139 l 972 0 l 764 0 l 764 -139 l 347 -139 l 347 0 l 139 0 l 139 139 m 486 625 l 347 625 l 347 347 l 486 347 l 486 208 l 625 208 l 625 347 l 764 347 l 764 625 l 625 625 l 625 764 l 486 764 l 486 625 z "},"1":{"ha":1085,"x_min":0,"x_max":0,"o":""},"2":{"ha":1106,"x_min":53,"x_max":1025,"o":"m 1025 -139 l 53 -139 l 53 275 l 192 275 l 192 417 l 331 417 l 331 556 l 469 556 l 469 764 l 331 764 l 331 625 l 53 625 l 53 972 l 192 972 l 192 1111 l 747 1111 l 747 972 l 886 972 l 886 833 l 1025 833 l 1025 694 l 886 694 l 886 556 l 747 556 l 747 417 l 608 417 l 608 275 l 1025 275 l 1025 -139 z "},"3":{"ha":1038,"x_min":0,"x_max":0,"o":""},"4":{"ha":1057,"x_min":0,"x_max":0,"o":""},"5":{"ha":1003,"x_min":69,"x_max":972,"o":"m 69 139 l 347 139 l 347 272 l 486 272 l 486 417 l 278 417 l 278 556 l 69 556 l 69 1111 l 764 1111 l 764 972 l 903 972 l 903 833 l 417 833 l 417 694 l 694 694 l 694 556 l 833 556 l 833 417 l 972 417 l 972 278 l 833 278 l 833 139 l 694 139 l 694 0 l 556 0 l 556 -139 l 69 -139 l 69 139 z "},"6":{"ha":1046,"x_min":139,"x_max":972,"o":"m 972 833 l 486 833 l 486 764 l 417 764 l 417 625 l 833 625 l 833 486 l 972 486 l 972 0 l 833 0 l 833 -139 l 278 -139 l 278 0 l 139 0 l 139 972 l 278 972 l 278 1111 l 833 1111 l 833 972 l 972 972 l 972 833 m 486 208 l 486 139 l 625 139 l 625 208 l 694 208 l 694 347 l 417 347 l 417 208 l 486 208 z "},"7":{"ha":1006,"x_min":0,"x_max":0,"o":""},"8":{"ha":1058,"x_min":33,"x_max":1006,"o":"m 728 694 l 728 556 l 867 556 l 867 417 l 1006 417 l 1006 0 l 867 0 l 867 -139 l 172 -139 l 172 0 l 33 0 l 33 417 l 172 417 l 172 556 l 311 556 l 311 694 l 172 694 l 172 972 l 311 972 l 311 1111 l 728 1111 l 728 972 l 867 972 l 867 694 l 728 694 m 589 347 l 589 417 l 450 417 l 450 347 l 381 347 l 381 208 l 450 208 l 450 139 l 589 139 l 589 208 l 658 208 l 658 347 l 589 347 m 450 764 l 589 764 l 589 903 l 449 903 l 450 764 z "},"9":{"ha":942,"x_min":0,"x_max":0,"o":""},"\u0000":{"ha":0,"x_min":0,"x_max":0,"o":""},"\r":{"ha":347,"x_min":0,"x_max":0,"o":""}," ":{"ha":650,"x_min":0,"x_max":0,"o":""}," ":{"ha":650,"x_min":0,"x_max":0,"o":""},"!":{"ha":694,"x_min":71,"x_max":626,"o":"m 418 347 l 418 278 l 557 278 l 557 139 l 626 139 l 626 0 l 557 0 l 557 -139 l 418 -139 l 418 -208 l 279 -208 l 279 -139 l 140 -139 l 140 0 l 71 0 l 71 139 l 140 139 l 140 278 l 279 278 l 279 347 l 418 347 m 208 417 l 208 556 l 139 556 l 139 1181 l 556 1181 l 556 556 l 486 556 l 486 417 l 208 417 z "},"\"":{"ha":769,"x_min":69,"x_max":694,"o":"m 347 1181 l 347 833 l 278 833 l 278 764 l 139 764 l 139 833 l 69 833 l 69 1182 l 347 1181 m 694 1181 l 694 833 l 625 833 l 625 764 l 486 764 l 486 833 l 417 833 l 417 1182 l 694 1181 z "},"#":{"ha":1353,"x_min":50,"x_max":1300,"o":"m 50 417 l 328 417 l 328 556 l 50 556 l 50 833 l 328 833 l 328 972 l 467 972 l 467 1111 l 606 1111 l 606 833 l 743 833 l 743 1111 l 1022 1111 l 1022 833 l 1300 833 l 1300 556 l 1022 556 l 1022 419 l 1300 419 l 1300 139 l 1022 139 l 1022 0 l 883 0 l 883 -139 l 744 -139 l 744 139 l 606 139 l 606 -139 l 328 -139 l 328 139 l 50 139 l 50 417 m 744 417 l 744 556 l 606 556 l 606 417 l 744 417 z "},"$":{"ha":1149,"x_min":69,"x_max":1111,"o":"m 69 -69 l 69 278 l 347 278 l 347 417 l 208 417 l 208 556 l 69 556 l 69 903 l 208 903 l 208 1042 l 417 1042 l 417 1181 l 625 1181 l 625 1042 l 903 1042 l 903 903 l 1042 903 l 1042 764 l 903 764 l 903 694 l 556 694 l 556 556 l 833 556 l 833 417 l 972 417 l 972 347 l 1111 347 l 1111 208 l 972 208 l 972 69 l 833 69 l 833 -69 l 625 -69 l 625 -208 l 417 -208 l 417 -69 l 69 -69 z "},"%":{"ha":1597,"x_min":69,"x_max":1528,"o":"m 1181 0 l 1319 0 l 1319 139 l 1181 139 l 1181 0 m 278 835 l 417 835 l 417 974 l 278 974 l 278 835 m 1319 347 l 1319 278 l 1458 278 l 1458 139 l 1528 139 l 1528 0 l 1458 0 l 1458 -139 l 1319 -139 l 1319 -208 l 1181 -208 l 1181 -139 l 1042 -139 l 1042 0 l 972 0 l 972 139 l 1042 139 l 1042 278 l 1181 278 l 1181 347 l 1319 347 m 1181 1113 l 1181 764 l 1042 764 l 1042 556 l 903 556 l 903 278 l 764 278 l 764 69 l 694 69 l 694 -139 l 417 -139 l 417 139 l 486 139 l 486 417 l 625 417 l 625 625 l 764 625 l 764 903 l 903 903 l 903 1113 l 1181 1113 m 417 1182 l 417 1113 l 556 1113 l 556 974 l 625 974 l 625 835 l 556 835 l 556 696 l 417 696 l 417 626 l 278 626 l 278 696 l 139 696 l 139 835 l 69 835 l 69 974 l 139 974 l 139 1113 l 278 1113 l 278 1182 l 417 1182 z "},"&":{"ha":1292,"x_min":69,"x_max":1250,"o":"m 972 -139 l 972 -69 l 903 -69 l 903 0 l 694 0 l 694 -72 l 625 -72 l 625 -139 l 278 -139 l 278 69 l 139 69 l 139 278 l 69 278 l 69 417 l 139 417 l 139 556 l 278 556 l 278 694 l 139 694 l 139 833 l 278 833 l 278 972 l 417 972 l 417 1111 l 694 1111 l 694 972 l 833 972 l 833 764 l 972 764 l 972 625 l 833 625 l 833 486 l 694 486 l 694 417 l 833 417 l 833 278 l 903 278 l 903 417 l 1042 417 l 1042 556 l 1181 556 l 1181 347 l 1111 347 l 1111 208 l 1042 208 l 1042 139 l 1250 139 l 1250 -139 l 972 -139 m 556 208 l 556 347 l 417 347 l 417 208 l 556 208 m 625 625 l 625 764 l 486 764 l 486 625 l 625 625 z "},"'":{"ha":422,"x_min":69,"x_max":347,"o":"m 347 1181 l 347 833 l 278 833 l 278 764 l 139 764 l 139 833 l 69 833 l 69 1182 l 347 1181 z "},"(":{"ha":614,"x_min":69,"x_max":556,"o":"m 556 -139 l 208 -139 l 208 0 l 69 0 l 69 972 l 208 972 l 208 1111 l 556 1111 l 556 903 l 417 903 l 417 833 l 347 833 l 347 139 l 417 139 l 417 69 l 556 69 l 556 -139 z "},")":{"ha":626,"x_min":69,"x_max":556,"o":"m 208 69 l 208 139 l 278 139 l 278 833 l 208 833 l 208 903 l 69 903 l 69 1111 l 417 1111 l 417 972 l 556 972 l 556 0 l 417 0 l 417 -139 l 69 -139 l 69 69 l 208 69 z "},"*":{"ha":1079,"x_min":69,"x_max":972,"o":"m 347 694 l 347 764 l 69 764 l 69 972 l 417 972 l 417 1181 l 625 1181 l 625 972 l 972 972 l 972 765 l 694 765 l 694 694 l 764 694 l 764 556 l 833 556 l 833 417 l 625 417 l 625 556 l 556 556 l 556 765 l 486 765 l 486 556 l 417 556 l 417 417 l 208 417 l 208 556 l 278 556 l 278 694 l 347 694 z "},"+":{"ha":1060,"x_min":69,"x_max":972,"o":"m 347 69 l 347 347 l 69 347 l 69 625 l 347 625 l 347 903 l 694 903 l 694 625 l 972 625 l 972 347 l 694 347 l 694 69 l 347 69 z "},",":{"ha":653,"x_min":69,"x_max":556,"o":"m 347 -278 l 347 -347 l 69 -347 l 69 -139 l 278 -139 l 278 -69 l 139 -69 l 139 69 l 69 69 l 69 208 l 139 208 l 139 278 l 278 278 l 278 347 l 417 347 l 417 278 l 556 278 l 556 -139 l 486 -139 l 486 -278 l 347 -278 z "},"-":{"ha":694,"x_min":69,"x_max":625,"o":"m 625 347 l 69 347 l 69 625 l 625 625 l 625 347 z "},".":{"ha":651,"x_min":25,"x_max":581,"o":"m 372 347 l 372 278 l 511 278 l 511 139 l 581 139 l 581 0 l 511 0 l 511 -139 l 372 -139 l 372 -208 l 233 -208 l 233 -139 l 94 -139 l 94 0 l 25 0 l 25 139 l 94 139 l 94 278 l 233 278 l 233 347 l 372 347 z "},"/":{"ha":875,"x_min":69,"x_max":833,"o":"m 833 1113 l 833 764 l 694 764 l 694 556 l 556 556 l 556 278 l 417 278 l 417 0 l 347 0 l 347 -139 l 69 -139 l 69 69 l 139 69 l 139 347 l 278 347 l 278 625 l 417 625 l 417 833 l 556 833 l 556 1113 l 833 1113 z "},":":{"ha":644,"x_min":25,"x_max":581,"o":"m 372 347 l 372 278 l 511 278 l 511 139 l 581 139 l 581 0 l 511 0 l 511 -139 l 372 -139 l 372 -208 l 233 -208 l 233 -139 l 94 -139 l 94 0 l 25 0 l 25 139 l 94 139 l 94 278 l 233 278 l 233 347 l 372 347 m 372 1111 l 372 1042 l 511 1042 l 511 903 l 581 903 l 581 764 l 511 764 l 511 625 l 372 625 l 372 556 l 233 556 l 233 625 l 94 625 l 94 764 l 25 764 l 25 903 l 94 903 l 94 1042 l 233 1042 l 233 1111 l 372 1111 z "},";":{"ha":644,"x_min":25,"x_max":581,"o":"m 372 1111 l 372 1042 l 511 1042 l 511 903 l 581 903 l 581 764 l 511 764 l 511 625 l 372 625 l 372 556 l 233 556 l 233 625 l 94 625 l 94 764 l 25 764 l 25 903 l 94 903 l 94 1042 l 233 1042 l 233 1111 l 372 1111 m 347 -278 l 347 -347 l 69 -347 l 69 -139 l 278 -139 l 278 -69 l 139 -69 l 139 69 l 69 69 l 69 208 l 139 208 l 139 278 l 278 278 l 278 347 l 417 347 l 417 278 l 556 278 l 556 -139 l 486 -139 l 486 -278 l 347 -278 z "},"<":{"ha":1036,"x_min":139,"x_max":833,"o":"m 833 139 l 417 139 l 417 278 l 278 278 l 278 417 l 139 417 l 139 556 l 278 556 l 278 694 l 417 694 l 417 833 l 833 833 l 833 556 l 556 556 l 556 417 l 833 417 l 833 139 z "},"=":{"ha":804,"x_min":139,"x_max":694,"o":"m 139 833 l 694 833 l 694 556 l 139 556 l 139 833 m 139 486 l 694 486 l 694 208 l 139 208 l 139 486 z "},">":{"ha":950,"x_min":139,"x_max":833,"o":"m 417 417 l 417 556 l 139 556 l 139 833 l 556 833 l 556 694 l 694 694 l 694 556 l 833 556 l 833 417 l 694 417 l 694 278 l 556 278 l 556 139 l 139 139 l 139 417 l 417 417 z "},"?":{"ha":835,"x_min":69,"x_max":694,"o":"m 418 347 l 418 278 l 557 278 l 557 139 l 626 139 l 626 0 l 557 0 l 557 -139 l 418 -139 l 418 -208 l 279 -208 l 279 -139 l 140 -139 l 140 0 l 71 0 l 71 139 l 140 139 l 140 278 l 279 278 l 279 347 l 418 347 m 208 417 l 208 625 l 278 625 l 278 833 l 417 833 l 417 972 l 278 972 l 278 903 l 69 903 l 69 1181 l 556 1181 l 556 1042 l 694 1042 l 694 833 l 625 833 l 625 764 l 556 764 l 556 625 l 486 625 l 486 417 l 208 417 z "},"@":{"ha":1599,"x_min":69,"x_max":1528,"o":"m 972 694 l 972 764 l 1111 764 l 1111 278 l 1250 278 l 1250 417 l 1319 417 l 1319 694 l 1250 694 l 1250 833 l 1042 833 l 1042 903 l 903 903 l 903 972 l 764 972 l 764 903 l 625 903 l 625 833 l 417 833 l 417 694 l 347 694 l 347 278 l 417 278 l 417 139 l 764 139 l 764 0 l 1111 0 l 1111 -208 l 556 -208 l 556 -69 l 278 -69 l 278 69 l 139 69 l 139 417 l 69 417 l 69 556 l 139 556 l 139 833 l 278 833 l 278 972 l 556 972 l 556 1111 l 1111 1111 l 1111 972 l 1389 972 l 1389 833 l 1528 833 l 1528 208 l 1389 208 l 1389 69 l 903 69 l 903 208 l 486 208 l 486 625 l 625 625 l 625 764 l 903 764 l 903 694 l 972 694 m 903 417 l 903 556 l 764 556 l 764 417 l 903 417 z "},"A":{"ha":1264,"x_min":69,"x_max":1181,"o":"m 1181 -139 l 903 -139 l 903 0 l 764 0 l 764 139 l 486 139 l 486 0 l 347 0 l 347 -139 l 208 -139 l 208 0 l 69 0 l 69 556 l 208 556 l 208 833 l 347 833 l 347 972 l 486 972 l 486 1111 l 764 1111 l 764 972 l 903 972 l 903 833 l 1042 833 l 1042 556 l 1181 556 l 1181 -139 m 486 417 l 764 417 l 764 556 l 694 556 l 694 694 l 556 694 l 556 556 l 486 556 l 486 417 z "},"B":{"ha":1354,"x_min":71,"x_max":1319,"o":"m 764 139 l 764 208 l 903 208 l 903 347 l 764 347 l 764 417 l 625 417 l 625 139 l 764 139 m 903 625 l 903 764 l 764 764 l 764 833 l 625 833 l 625 556 l 764 556 l 764 625 l 903 625 m 71 833 l 71 1111 l 903 1111 l 903 972 l 1042 972 l 1042 833 l 1181 833 l 1181 556 l 1042 556 l 1042 417 l 1181 417 l 1181 278 l 1319 278 l 1319 139 l 1181 139 l 1181 0 l 1042 0 l 1042 -139 l 71 -139 l 71 0 l 208 0 l 208 833 l 71 833 z "},"C":{"ha":1229,"x_min":69,"x_max":1181,"o":"m 1181 417 l 1181 0 l 1042 0 l 1042 -139 l 347 -139 l 347 139 l 208 139 l 208 278 l 69 278 l 69 694 l 208 694 l 208 833 l 347 833 l 347 972 l 486 972 l 486 1111 l 1042 1111 l 1042 972 l 1181 972 l 1181 694 l 764 694 l 764 833 l 625 833 l 625 694 l 486 694 l 486 556 l 625 556 l 625 417 l 764 417 l 764 278 l 903 278 l 903 417 l 1181 417 z "},"D":{"ha":1382,"x_min":69,"x_max":1319,"o":"m 69 833 l 69 1111 l 1042 1111 l 1042 972 l 1181 972 l 1181 833 l 1319 833 l 1319 139 l 1181 139 l 1181 0 l 1042 0 l 1042 -139 l 208 -139 l 208 833 l 69 833 m 764 139 l 764 208 l 903 208 l 903 417 l 1042 417 l 1042 556 l 903 556 l 903 694 l 764 694 l 764 833 l 625 833 l 625 139 l 764 139 z "},"E":{"ha":940,"x_min":69,"x_max":903,"o":"m 903 -139 l 208 -139 l 208 0 l 69 0 l 69 972 l 208 972 l 208 1111 l 764 1111 l 903 1113 l 903 833 l 764 833 l 764 694 l 417 694 l 417 556 l 694 556 l 694 417 l 417 417 l 417 278 l 764 278 l 764 139 l 903 139 l 903 -139 z "},"F":{"ha":882,"x_min":69,"x_max":833,"o":"m 208 -139 l 208 0 l 69 0 l 69 972 l 208 972 l 208 1111 l 833 1111 l 833 694 l 486 694 l 486 556 l 694 556 l 694 278 l 486 278 l 486 -139 l 208 -139 z "},"G":{"ha":1144,"x_min":69,"x_max":1111,"o":"m 972 764 l 556 764 l 556 625 l 417 625 l 417 278 l 699 278 l 699 417 l 556 417 l 556 556 l 1111 556 l 1111 139 l 972 139 l 972 0 l 764 0 l 764 -139 l 347 -139 l 347 0 l 69 0 l 69 833 l 208 833 l 208 972 l 347 972 l 347 1111 l 833 1111 l 833 972 l 972 972 l 972 764 z "},"H":{"ha":1229,"x_min":69,"x_max":1181,"o":"m 1042 1111 l 1042 972 l 1181 972 l 1181 -139 l 903 -139 l 903 0 l 764 0 l 764 417 l 486 417 l 486 -139 l 208 -139 l 208 0 l 69 0 l 69 972 l 208 972 l 208 1111 l 486 1111 l 486 694 l 764 694 l 764 1111 l 1042 1111 z "},"I":{"ha":629,"x_min":69,"x_max":556,"o":"m 556 764 l 556 -139 l 208 -139 l 208 0 l 69 0 l 69 764 l 556 764 m 69 1042 l 208 1042 l 208 1181 l 417 1181 l 417 1042 l 556 1042 l 556 833 l 69 833 l 69 1042 z "},"J":{"ha":1015,"x_min":69,"x_max":972,"o":"m 69 347 l 347 347 l 347 208 l 486 208 l 486 764 l 69 764 l 69 972 l 208 972 l 208 1111 l 972 1111 l 972 833 l 833 833 l 833 0 l 694 0 l 694 -139 l 208 -139 l 208 0 l 69 0 l 69 347 z "},"K":{"ha":1067,"x_min":69,"x_max":1042,"o":"m 1042 -139 l 764 -139 l 764 0 l 625 0 l 625 139 l 556 139 l 556 278 l 417 278 l 417 -139 l 208 -139 l 208 0 l 69 1 l 69 972 l 208 972 l 208 1111 l 417 1111 l 417 764 l 556 764 l 556 903 l 694 903 l 694 1111 l 972 1111 l 972 833 l 903 833 l 903 694 l 764 694 l 764 556 l 625 556 l 625 417 l 764 417 l 764 278 l 903 278 l 903 139 l 1042 139 l 1042 -139 z "},"L":{"ha":935,"x_min":69,"x_max":903,"o":"m 208 1113 l 486 1113 l 486 278 l 764 278 l 764 417 l 903 417 l 903 -139 l 208 -139 l 208 0 l 69 0 l 69 972 l 208 972 l 208 1113 z "},"M":{"ha":1475,"x_min":69,"x_max":1389,"o":"m 486 1111 l 486 972 l 694 972 l 694 764 l 833 764 l 833 972 l 1042 972 l 1042 1111 l 1389 1111 l 1389 0 l 1250 0 l 1250 -139 l 1042 -139 l 1042 486 l 903 486 l 903 278 l 833 278 l 833 139 l 694 139 l 694 278 l 625 278 l 625 486 l 486 486 l 486 -139 l 208 -139 l 208 0 l 69 0 l 69 694 l 208 694 l 208 972 l 69 972 l 69 1111 l 486 1111 z "},"N":{"ha":1200,"x_min":0,"x_max":1111,"o":"m 903 -139 l 903 0 l 764 0 l 764 208 l 625 208 l 625 417 l 486 417 l 486 -139 l 139 -139 l 139 833 l 0 833 l 0 972 l 139 972 l 139 1111 l 417 1111 l 417 972 l 556 972 l 556 764 l 625 764 l 625 625 l 764 625 l 764 1111 l 972 1111 l 972 972 l 1111 972 l 1111 -139 l 903 -139 z "},"O":{"ha":1242,"x_min":69,"x_max":1181,"o":"m 208 139 l 69 139 l 69 833 l 208 833 l 208 972 l 486 972 l 486 1111 l 764 1111 l 764 972 l 1042 972 l 1042 833 l 1181 833 l 1181 139 l 1042 139 l 1042 0 l 833 0 l 833 -139 l 417 -139 l 417 0 l 208 0 l 208 139 m 556 694 l 417 694 l 417 417 l 556 417 l 556 278 l 694 278 l 694 417 l 833 417 l 833 694 l 694 694 l 694 833 l 556 833 l 556 694 z "},"P":{"ha":1243,"x_min":69,"x_max":1181,"o":"m 903 625 l 903 764 l 764 764 l 764 833 l 625 833 l 625 486 l 764 486 l 764 625 l 903 625 m 69 833 l 69 1111 l 903 1111 l 903 972 l 1042 972 l 1042 833 l 1181 833 l 1181 556 l 1042 556 l 1042 417 l 903 417 l 903 278 l 625 278 l 625 0 l 764 0 l 764 -139 l 69 -139 l 69 0 l 208 0 l 208 833 l 69 833 z "},"Q":{"ha":1301,"x_min":69,"x_max":1250,"o":"m 208 139 l 69 139 l 69 833 l 208 833 l 208 972 l 486 972 l 486 1111 l 764 1111 l 764 972 l 1042 972 l 1042 833 l 1181 833 l 1181 208 l 1042 208 l 1042 69 l 1250 69 l 1250 -208 l 972 -208 l 972 -69 l 833 -69 l 833 0 l 764 0 l 764 -139 l 417 -139 l 417 0 l 208 0 l 208 139 m 556 694 l 417 694 l 417 417 l 556 417 l 556 278 l 694 278 l 694 417 l 833 417 l 833 694 l 694 694 l 694 833 l 556 833 l 556 694 z "},"R":{"ha":1322,"x_min":26,"x_max":1276,"o":"m 860 -139 l 860 139 l 721 139 l 721 278 l 582 278 l 582 0 l 721 0 l 721 -139 l 26 -139 l 26 0 l 165 0 l 165 833 l 26 833 l 26 1111 l 999 1111 l 999 972 l 1138 972 l 1138 833 l 1276 833 l 1276 694 l 1138 694 l 1138 556 l 860 556 l 860 417 l 999 417 l 999 278 l 1138 278 l 1138 139 l 1276 139 l 1276 -139 l 860 -139 m 582 625 l 721 625 l 721 694 l 860 694 l 860 833 l 721 833 l 721 903 l 582 903 l 582 625 z "},"S":{"ha":1156,"x_min":81,"x_max":1122,"o":"m 81 278 l 358 278 l 358 417 l 219 417 l 219 556 l 81 556 l 81 972 l 219 972 l 219 1111 l 914 1111 l 914 972 l 1053 972 l 1053 833 l 914 833 l 914 694 l 567 694 l 567 556 l 844 556 l 844 417 l 983 417 l 983 278 l 1122 278 l 1122 139 l 983 139 l 983 0 l 844 0 l 844 -139 l 81 -139 l 81 278 z "},"T":{"ha":1199,"x_min":69,"x_max":1111,"o":"m 486 -139 l 486 0 l 347 0 l 347 694 l 69 694 l 69 972 l 208 972 l 208 1111 l 972 1111 l 972 972 l 1111 972 l 1111 694 l 833 694 l 833 -139 l 486 -139 z "},"U":{"ha":1250,"x_min":69,"x_max":1181,"o":"m 1181 1111 l 1181 139 l 1042 139 l 1042 0 l 764 0 l 764 -139 l 486 -139 l 486 0 l 69 0 l 69 972 l 208 972 l 208 1111 l 486 1111 l 486 486 l 556 486 l 556 347 l 694 347 l 694 486 l 764 486 l 764 1111 l 1181 1111 z "},"V":{"ha":1350,"x_min":46,"x_max":1296,"o":"m 1296 1111 l 1296 625 l 1157 625 l 1157 347 l 1018 347 l 1018 139 l 879 139 l 879 0 l 740 0 l 740 -139 l 601 -139 l 601 0 l 463 0 l 463 139 l 324 139 l 324 347 l 185 347 l 185 556 l 46 556 l 46 1111 l 393 1111 l 393 833 l 532 833 l 532 417 l 601 417 l 601 278 l 740 278 l 740 417 l 810 417 l 810 833 l 949 833 l 949 1111 l 1296 1111 z "},"W":{"ha":1446,"x_min":53,"x_max":1372,"o":"m 192 0 l 53 0 l 53 972 l 192 972 l 192 1111 l 469 1111 l 469 486 l 608 486 l 608 694 l 678 694 l 678 833 l 817 833 l 817 694 l 886 694 l 886 486 l 1025 486 l 1025 1111 l 1372 1111 l 1372 0 l 1233 0 l 1233 -139 l 1025 -139 l 1025 0 l 817 0 l 817 208 l 678 208 l 678 0 l 469 0 l 469 -139 l 192 -139 l 192 0 z "},"X":{"ha":1203,"x_min":31,"x_max":1142,"o":"m 1142 -139 l 725 -139 l 725 139 l 656 139 l 656 278 l 517 278 l 517 139 l 447 139 l 447 -139 l 31 -139 l 31 208 l 169 208 l 169 486 l 308 486 l 308 694 l 169 694 l 169 833 l 31 833 l 31 972 l 169 972 l 169 1111 l 378 1111 l 378 972 l 517 972 l 517 833 l 656 833 l 656 972 l 794 972 l 794 1111 l 1142 1111 l 1142 833 l 1003 833 l 1003 694 l 864 694 l 864 486 l 1003 486 l 1003 208 l 1142 208 l 1142 -139 z "},"Y":{"ha":1000,"x_min":14,"x_max":986,"o":"m 986 1111 l 986 764 l 847 764 l 847 556 l 708 556 l 708 -139 l 431 -139 l 431 0 l 292 0 l 292 556 l 153 556 l 153 764 l 14 764 l 14 1111 l 361 1111 l 361 972 l 431 972 l 431 833 l 569 833 l 569 972 l 639 972 l 639 1111 l 986 1111 z "},"Z":{"ha":1089,"x_min":54,"x_max":1026,"o":"m 1026 694 l 888 694 l 888 556 l 749 556 l 749 417 l 610 417 l 610 278 l 888 278 l 888 139 l 1026 139 l 1026 -139 l 193 -139 l 193 0 l 54 0 l 54 347 l 193 347 l 193 486 l 332 486 l 332 625 l 471 625 l 471 764 l 54 764 l 54 972 l 193 972 l 193 1111 l 1026 1111 l 1026 694 z "},"[":{"ha":554,"x_min":69,"x_max":556,"o":"m 556 -139 l 69 -139 l 69 1111 l 556 1111 l 556 903 l 347 903 l 347 69 l 556 69 l 556 -139 z "},"\\":{"ha":878,"x_min":43,"x_max":807,"o":"m 321 833 l 460 833 l 460 625 l 599 625 l 599 347 l 738 347 l 738 69 l 807 69 l 807 -139 l 529 -139 l 529 0 l 460 0 l 460 278 l 321 278 l 321 556 l 182 556 l 182 764 l 43 764 l 43 1115 l 321 1115 l 321 833 z "},"]":{"ha":610,"x_min":69,"x_max":556,"o":"m 278 69 l 278 903 l 69 903 l 69 1111 l 556 1111 l 556 -139 l 69 -139 l 69 69 l 278 69 z "},"^":{"ha":847,"x_min":69,"x_max":764,"o":"m 486 625 l 486 764 l 347 764 l 347 625 l 69 625 l 69 764 l 208 764 l 208 903 l 278 903 l 278 1111 l 556 1111 l 556 903 l 625 903 l 625 764 l 764 764 l 764 625 l 486 625 z "},"_":{"ha":839,"x_min":69,"x_max":764,"o":"m 764 -208 l 69 -208 l 69 69 l 764 69 l 764 -208 z "},"`":{"ha":603,"x_min":69,"x_max":556,"o":"m 347 1250 l 278 1250 l 278 1319 l 208 1319 l 208 1389 l 139 1389 l 139 1458 l 69 1458 l 69 1597 l 347 1597 l 347 1528 l 417 1528 l 417 1458 l 486 1458 l 486 1319 l 556 1319 l 556 1181 l 347 1181 l 347 1250 z "},"a":{"ha":1264,"x_min":69,"x_max":1181,"o":"m 1181 -139 l 903 -139 l 903 0 l 764 0 l 764 139 l 486 139 l 486 0 l 347 0 l 347 -139 l 208 -139 l 208 0 l 69 0 l 69 556 l 208 556 l 208 833 l 347 833 l 347 972 l 486 972 l 486 1111 l 764 1111 l 764 972 l 903 972 l 903 833 l 1042 833 l 1042 556 l 1181 556 l 1181 -139 m 486 417 l 764 417 l 764 556 l 694 556 l 694 694 l 556 694 l 556 556 l 486 556 l 486 417 z "},"b":{"ha":1354,"x_min":71,"x_max":1319,"o":"m 764 139 l 764 208 l 903 208 l 903 347 l 764 347 l 764 417 l 625 417 l 625 139 l 764 139 m 903 625 l 903 764 l 764 764 l 764 833 l 625 833 l 625 556 l 764 556 l 764 625 l 903 625 m 71 833 l 71 1111 l 903 1111 l 903 972 l 1042 972 l 1042 833 l 1181 833 l 1181 556 l 1042 556 l 1042 417 l 1181 417 l 1181 278 l 1319 278 l 1319 139 l 1181 139 l 1181 0 l 1042 0 l 1042 -139 l 71 -139 l 71 0 l 208 0 l 208 833 l 71 833 z "},"c":{"ha":1229,"x_min":69,"x_max":1181,"o":"m 1181 417 l 1181 0 l 1042 0 l 1042 -139 l 347 -139 l 347 139 l 208 139 l 208 278 l 69 278 l 69 694 l 208 694 l 208 833 l 347 833 l 347 972 l 486 972 l 486 1111 l 1042 1111 l 1042 972 l 1181 972 l 1181 694 l 764 694 l 764 833 l 625 833 l 625 694 l 486 694 l 486 556 l 625 556 l 625 417 l 764 417 l 764 278 l 903 278 l 903 417 l 1181 417 z "},"d":{"ha":1382,"x_min":69,"x_max":1319,"o":"m 69 833 l 69 1111 l 1042 1111 l 1042 972 l 1181 972 l 1181 833 l 1319 833 l 1319 139 l 1181 139 l 1181 0 l 1042 0 l 1042 -139 l 208 -139 l 208 833 l 69 833 m 764 139 l 764 208 l 903 208 l 903 417 l 1042 417 l 1042 556 l 903 556 l 903 694 l 764 694 l 764 833 l 625 833 l 625 139 l 764 139 z "},"e":{"ha":940,"x_min":69,"x_max":903,"o":"m 903 -139 l 208 -139 l 208 0 l 69 0 l 69 972 l 208 972 l 208 1111 l 764 1111 l 903 1113 l 903 833 l 764 833 l 764 694 l 417 694 l 417 556 l 694 556 l 694 417 l 417 417 l 417 278 l 764 278 l 764 139 l 903 139 l 903 -139 z "},"f":{"ha":882,"x_min":69,"x_max":833,"o":"m 208 -139 l 208 0 l 69 0 l 69 972 l 208 972 l 208 1111 l 833 1111 l 833 694 l 486 694 l 486 556 l 694 556 l 694 278 l 486 278 l 486 -139 l 208 -139 z "},"g":{"ha":1144,"x_min":69,"x_max":1111,"o":"m 972 764 l 556 764 l 556 625 l 417 625 l 417 278 l 699 278 l 699 417 l 556 417 l 556 556 l 1111 556 l 1111 139 l 972 139 l 972 0 l 764 0 l 764 -139 l 347 -139 l 347 0 l 69 0 l 69 833 l 208 833 l 208 972 l 347 972 l 347 1111 l 833 1111 l 833 972 l 972 972 l 972 764 z "},"h":{"ha":1229,"x_min":69,"x_max":1181,"o":"m 1042 1111 l 1042 972 l 1181 972 l 1181 -139 l 903 -139 l 903 0 l 764 0 l 764 417 l 486 417 l 486 -139 l 208 -139 l 208 0 l 69 0 l 69 972 l 208 972 l 208 1111 l 486 1111 l 486 694 l 764 694 l 764 1111 l 1042 1111 z "},"i":{"ha":629,"x_min":69,"x_max":556,"o":"m 556 764 l 556 -139 l 208 -139 l 208 0 l 69 0 l 69 764 l 556 764 m 69 1042 l 208 1042 l 208 1181 l 417 1181 l 417 1042 l 556 1042 l 556 833 l 69 833 l 69 1042 z "},"j":{"ha":1015,"x_min":69,"x_max":972,"o":"m 69 347 l 347 347 l 347 208 l 486 208 l 486 764 l 69 764 l 69 972 l 208 972 l 208 1111 l 972 1111 l 972 833 l 833 833 l 833 0 l 694 0 l 694 -139 l 208 -139 l 208 0 l 69 0 l 69 347 z "},"k":{"ha":1067,"x_min":69,"x_max":1042,"o":"m 1042 -139 l 764 -139 l 764 0 l 625 0 l 625 139 l 556 139 l 556 278 l 417 278 l 417 -139 l 208 -139 l 208 0 l 69 1 l 69 972 l 208 972 l 208 1111 l 417 1111 l 417 764 l 556 764 l 556 903 l 694 903 l 694 1111 l 972 1111 l 972 833 l 903 833 l 903 694 l 764 694 l 764 556 l 625 556 l 625 417 l 764 417 l 764 278 l 903 278 l 903 139 l 1042 139 l 1042 -139 z "},"l":{"ha":935,"x_min":69,"x_max":903,"o":"m 208 1113 l 486 1113 l 486 278 l 764 278 l 764 417 l 903 417 l 903 -139 l 208 -139 l 208 0 l 69 0 l 69 972 l 208 972 l 208 1113 z "},"m":{"ha":1475,"x_min":69,"x_max":1389,"o":"m 486 1111 l 486 972 l 694 972 l 694 764 l 833 764 l 833 972 l 1042 972 l 1042 1111 l 1389 1111 l 1389 0 l 1250 0 l 1250 -139 l 1042 -139 l 1042 486 l 903 486 l 903 278 l 833 278 l 833 139 l 694 139 l 694 278 l 625 278 l 625 486 l 486 486 l 486 -139 l 208 -139 l 208 0 l 69 0 l 69 694 l 208 694 l 208 972 l 69 972 l 69 1111 l 486 1111 z "},"n":{"ha":1200,"x_min":0,"x_max":1111,"o":"m 903 -139 l 903 0 l 764 0 l 764 208 l 625 208 l 625 417 l 486 417 l 486 -139 l 139 -139 l 139 833 l 0 833 l 0 972 l 139 972 l 139 1111 l 417 1111 l 417 972 l 556 972 l 556 764 l 625 764 l 625 625 l 764 625 l 764 1111 l 972 1111 l 972 972 l 1111 972 l 1111 -139 l 903 -139 z "},"o":{"ha":1242,"x_min":69,"x_max":1181,"o":"m 208 139 l 69 139 l 69 833 l 208 833 l 208 972 l 486 972 l 486 1111 l 764 1111 l 764 972 l 1042 972 l 1042 833 l 1181 833 l 1181 139 l 1042 139 l 1042 0 l 833 0 l 833 -139 l 417 -139 l 417 0 l 208 0 l 208 139 m 556 694 l 417 694 l 417 417 l 556 417 l 556 278 l 694 278 l 694 417 l 833 417 l 833 694 l 694 694 l 694 833 l 556 833 l 556 694 z "},"p":{"ha":1243,"x_min":69,"x_max":1181,"o":"m 903 625 l 903 764 l 764 764 l 764 833 l 625 833 l 625 486 l 764 486 l 764 625 l 903 625 m 69 833 l 69 1111 l 903 1111 l 903 972 l 1042 972 l 1042 833 l 1181 833 l 1181 556 l 1042 556 l 1042 417 l 903 417 l 903 278 l 625 278 l 625 0 l 764 0 l 764 -139 l 69 -139 l 69 0 l 208 0 l 208 833 l 69 833 z "},"q":{"ha":1301,"x_min":69,"x_max":1250,"o":"m 208 139 l 69 139 l 69 833 l 208 833 l 208 972 l 486 972 l 486 1111 l 764 1111 l 764 972 l 1042 972 l 1042 833 l 1181 833 l 1181 208 l 1042 208 l 1042 69 l 1250 69 l 1250 -208 l 972 -208 l 972 -69 l 833 -69 l 833 0 l 764 0 l 764 -139 l 417 -139 l 417 0 l 208 0 l 208 139 m 556 694 l 417 694 l 417 417 l 556 417 l 556 278 l 694 278 l 694 417 l 833 417 l 833 694 l 694 694 l 694 833 l 556 833 l 556 694 z "},"r":{"ha":1322,"x_min":26,"x_max":1276,"o":"m 860 -139 l 860 139 l 721 139 l 721 278 l 582 278 l 582 0 l 721 0 l 721 -139 l 26 -139 l 26 0 l 165 0 l 165 833 l 26 833 l 26 1111 l 999 1111 l 999 972 l 1138 972 l 1138 833 l 1276 833 l 1276 694 l 1138 694 l 1138 556 l 860 556 l 860 417 l 999 417 l 999 278 l 1138 278 l 1138 139 l 1276 139 l 1276 -139 l 860 -139 m 582 625 l 721 625 l 721 694 l 860 694 l 860 833 l 721 833 l 721 903 l 582 903 l 582 625 z "},"s":{"ha":1156,"x_min":81,"x_max":1122,"o":"m 81 278 l 358 278 l 358 417 l 219 417 l 219 556 l 81 556 l 81 972 l 219 972 l 219 1111 l 914 1111 l 914 972 l 1053 972 l 1053 833 l 914 833 l 914 694 l 567 694 l 567 556 l 844 556 l 844 417 l 983 417 l 983 278 l 1122 278 l 1122 139 l 983 139 l 983 0 l 844 0 l 844 -139 l 81 -139 l 81 278 z "},"t":{"ha":1199,"x_min":69,"x_max":1111,"o":"m 486 -139 l 486 0 l 347 0 l 347 694 l 69 694 l 69 972 l 208 972 l 208 1111 l 972 1111 l 972 972 l 1111 972 l 1111 694 l 833 694 l 833 -139 l 486 -139 z "},"u":{"ha":1250,"x_min":69,"x_max":1181,"o":"m 1181 1111 l 1181 139 l 1042 139 l 1042 0 l 764 0 l 764 -139 l 486 -139 l 486 0 l 69 0 l 69 972 l 208 972 l 208 1111 l 486 1111 l 486 486 l 556 486 l 556 347 l 694 347 l 694 486 l 764 486 l 764 1111 l 1181 1111 z "},"v":{"ha":1350,"x_min":46,"x_max":1296,"o":"m 1296 1111 l 1296 625 l 1157 625 l 1157 347 l 1018 347 l 1018 139 l 879 139 l 879 0 l 740 0 l 740 -139 l 601 -139 l 601 0 l 463 0 l 463 139 l 324 139 l 324 347 l 185 347 l 185 556 l 46 556 l 46 1111 l 393 1111 l 393 833 l 532 833 l 532 417 l 601 417 l 601 278 l 740 278 l 740 417 l 810 417 l 810 833 l 949 833 l 949 1111 l 1296 1111 z "},"w":{"ha":1446,"x_min":53,"x_max":1372,"o":"m 192 0 l 53 0 l 53 972 l 192 972 l 192 1111 l 469 1111 l 469 486 l 608 486 l 608 694 l 678 694 l 678 833 l 817 833 l 817 694 l 886 694 l 886 486 l 1025 486 l 1025 1111 l 1372 1111 l 1372 0 l 1233 0 l 1233 -139 l 1025 -139 l 1025 0 l 817 0 l 817 208 l 678 208 l 678 0 l 469 0 l 469 -139 l 192 -139 l 192 0 z "},"x":{"ha":1203,"x_min":31,"x_max":1142,"o":"m 1142 -139 l 725 -139 l 725 139 l 656 139 l 656 278 l 517 278 l 517 139 l 447 139 l 447 -139 l 31 -139 l 31 208 l 169 208 l 169 486 l 308 486 l 308 694 l 169 694 l 169 833 l 31 833 l 31 972 l 169 972 l 169 1111 l 378 1111 l 378 972 l 517 972 l 517 833 l 656 833 l 656 972 l 794 972 l 794 1111 l 1142 1111 l 1142 833 l 1003 833 l 1003 694 l 864 694 l 864 486 l 1003 486 l 1003 208 l 1142 208 l 1142 -139 z "},"y":{"ha":1000,"x_min":14,"x_max":986,"o":"m 986 1111 l 986 764 l 847 764 l 847 556 l 708 556 l 708 -139 l 431 -139 l 431 0 l 292 0 l 292 556 l 153 556 l 153 764 l 14 764 l 14 1111 l 361 1111 l 361 972 l 431 972 l 431 833 l 569 833 l 569 972 l 639 972 l 639 1111 l 986 1111 z "},"z":{"ha":1089,"x_min":54,"x_max":1026,"o":"m 1026 694 l 888 694 l 888 556 l 749 556 l 749 417 l 610 417 l 610 278 l 888 278 l 888 139 l 1026 139 l 1026 -139 l 193 -139 l 193 0 l 54 0 l 54 347 l 193 347 l 193 486 l 332 486 l 332 625 l 471 625 l 471 764 l 54 764 l 54 972 l 193 972 l 193 1111 l 1026 1111 l 1026 694 z "},"{":{"ha":661,"x_min":69,"x_max":625,"o":"m 278 417 l 417 417 l 417 139 l 486 139 l 486 69 l 625 69 l 625 -139 l 278 -139 l 278 0 l 139 0 l 139 417 l 69 417 l 69 556 l 139 556 l 139 972 l 278 972 l 278 1111 l 625 1111 l 625 903 l 486 903 l 486 833 l 417 833 l 417 556 l 278 556 l 278 417 z "},"|":{"ha":364,"x_min":69,"x_max":278,"o":"m 278 1181 l 278 -208 l 69 -208 l 69 1181 l 278 1181 z "},"}":{"ha":682,"x_min":69,"x_max":625,"o":"m 278 556 l 278 833 l 208 833 l 208 903 l 69 903 l 69 1111 l 417 1111 l 417 972 l 556 972 l 556 556 l 625 556 l 625 417 l 556 417 l 556 0 l 417 0 l 417 -139 l 69 -139 l 69 69 l 208 69 l 208 139 l 278 139 l 278 417 l 417 417 l 417 556 l 278 556 z "},"~":{"ha":1011,"x_min":69,"x_max":903,"o":"m 69 278 l 69 556 l 208 556 l 208 625 l 278 625 l 278 694 l 417 694 l 417 625 l 556 625 l 556 556 l 694 556 l 694 694 l 833 694 l 833 625 l 903 625 l 903 417 l 833 417 l 833 347 l 764 347 l 764 278 l 486 278 l 486 347 l 417 347 l 417 417 l 278 417 l 278 347 l 208 347 l 208 278 l 69 278 z "},"¡":{"ha":689,"x_min":69,"x_max":625,"o":"m 278 417 l 278 486 l 139 486 l 139 625 l 69 625 l 69 764 l 139 764 l 139 903 l 278 903 l 278 972 l 417 972 l 417 903 l 556 903 l 556 764 l 625 764 l 625 625 l 556 625 l 556 486 l 417 486 l 417 417 l 278 417 m 488 347 l 488 208 l 557 208 l 557 -417 l 140 -417 l 140 208 l 210 208 l 210 347 l 488 347 z "},"¢":{"ha":1004,"x_min":139,"x_max":903,"o":"m 694 1111 l 694 972 l 903 972 l 903 694 l 764 694 l 764 764 l 556 764 l 556 694 l 417 694 l 417 208 l 694 208 l 694 278 l 903 278 l 903 0 l 694 0 l 694 -139 l 486 -139 l 486 0 l 278 0 l 278 139 l 139 139 l 139 833 l 278 833 l 278 972 l 486 972 l 486 1111 l 694 1111 z "},"£":{"ha":865,"x_min":0,"x_max":833,"o":"m 625 417 l 417 417 l 417 139 l 833 139 l 833 -139 l 69 -139 l 69 139 l 139 139 l 139 417 l 0 417 l 0 556 l 139 556 l 139 972 l 278 972 l 278 1111 l 625 1111 l 625 972 l 764 972 l 764 764 l 556 764 l 556 833 l 417 833 l 417 556 l 625 556 l 625 417 z "},"¤":{"ha":1157,"x_min":139,"x_max":1042,"o":"m 208 69 l 208 140 l 139 139 l 139 278 l 278 278 l 278 347 l 208 347 l 208 694 l 278 694 l 278 764 l 139 764 l 139 903 l 208 903 l 208 972 l 347 972 l 347 903 l 833 903 l 833 972 l 972 972 l 972 903 l 1042 903 l 1042 764 l 903 764 l 903 694 l 972 694 l 972 347 l 903 347 l 903 278 l 1042 278 l 1042 139 l 972 139 l 972 69 l 833 69 l 833 140 l 347 140 l 347 69 l 208 69 m 556 347 l 556 278 l 625 278 l 625 347 l 764 347 l 764 486 l 833 486 l 833 556 l 764 556 l 764 694 l 625 694 l 625 764 l 556 764 l 556 694 l 417 694 l 417 556 l 347 556 l 347 486 l 417 486 l 417 347 l 556 347 z "},"¥":{"ha":1000,"x_min":14,"x_max":986,"o":"m 778 139 l 639 139 l 639 -139 l 361 -139 l 361 139 l 222 139 l 222 278 l 361 278 l 361 347 l 222 347 l 222 486 l 361 486 l 361 556 l 292 556 l 292 764 l 153 764 l 153 972 l 14 972 l 14 1111 l 361 1111 l 361 972 l 431 972 l 431 694 l 569 694 l 569 972 l 639 972 l 639 1111 l 986 1111 l 986 972 l 847 972 l 847 764 l 708 764 l 708 556 l 639 556 l 639 486 l 778 486 l 778 347 l 639 347 l 639 278 l 778 278 l 778 139 z "},"¦":{"ha":381,"x_min":69,"x_max":278,"o":"m 278 417 l 278 -208 l 69 -208 l 69 417 l 278 417 m 278 1181 l 278 625 l 69 625 l 69 1181 l 278 1181 z "},"§":{"ha":1163,"x_min":139,"x_max":1111,"o":"m 1042 972 l 556 972 l 556 833 l 833 833 l 833 694 l 972 694 l 972 556 l 1111 556 l 1111 417 l 972 417 l 972 278 l 833 278 l 833 208 l 972 208 l 972 0 l 1111 0 l 1111 -139 l 972 -139 l 972 -278 l 139 -278 l 139 0 l 694 0 l 694 139 l 347 139 l 347 278 l 208 278 l 208 417 l 139 417 l 139 556 l 208 556 l 208 625 l 347 625 l 347 764 l 208 764 l 208 1111 l 347 1111 l 347 1250 l 1042 1250 l 1042 972 m 764 417 l 764 556 l 486 556 l 486 417 l 764 417 z "},"¨":{"ha":763,"x_min":69,"x_max":694,"o":"m 347 1528 l 347 1250 l 69 1250 l 69 1528 l 347 1528 m 694 1528 l 694 1250 l 417 1250 l 417 1528 l 694 1528 z "},"©":{"ha":1042,"x_min":69,"x_max":972,"o":"m 69 69 l 69 972 l 139 972 l 139 1042 l 903 1042 l 903 972 l 972 972 l 972 69 l 903 69 l 903 0 l 139 0 l 139 69 l 69 69 m 764 208 l 347 208 l 347 278 l 278 278 l 278 694 l 347 694 l 347 833 l 764 833 l 764 625 l 625 625 l 625 694 l 486 694 l 486 347 l 625 347 l 625 417 l 764 417 l 764 208 m 835 139 l 835 903 l 208 903 l 208 139 l 835 139 z "},"ª":{"ha":575,"x_min":68,"x_max":556,"o":"m 346 833 l 207 833 l 207 764 l 346 764 l 346 833 m 69 556 l 556 556 l 556 414 l 69 414 l 69 556 m 415 625 l 415 694 l 346 694 l 346 625 l 68 625 l 68 972 l 346 972 l 346 1111 l 207 1111 l 207 1042 l 68 1042 l 68 1250 l 554 1250 l 554 625 l 415 625 z "},"«":{"ha":1053,"x_min":71,"x_max":972,"o":"m 486 208 l 347 208 l 347 278 l 139 278 l 139 417 l 71 417 l 71 556 l 139 556 l 139 694 l 347 694 l 347 764 l 486 764 l 486 556 l 347 556 l 347 417 l 486 417 l 486 208 m 972 208 l 833 208 l 833 278 l 625 278 l 625 417 l 557 417 l 557 556 l 625 556 l 625 694 l 833 694 l 833 764 l 972 764 l 972 556 l 833 556 l 833 417 l 972 417 l 972 208 z "},"¬":{"ha":1003,"x_min":139,"x_max":903,"o":"m 903 139 l 625 139 l 625 347 l 139 347 l 139 625 l 903 625 l 903 139 z "},"®":{"ha":1114,"x_min":69,"x_max":1042,"o":"m 69 1111 l 208 1111 l 208 1250 l 903 1250 l 903 1111 l 1042 1111 l 1042 556 l 903 556 l 903 417 l 208 417 l 208 556 l 69 556 l 69 1111 m 625 625 l 625 694 l 556 694 l 556 764 l 486 764 l 486 625 l 347 625 l 347 1042 l 694 1042 l 694 972 l 764 972 l 764 833 l 694 833 l 694 764 l 764 764 l 764 625 l 625 625 m 833 556 l 833 1111 l 278 1111 l 278 556 l 833 556 m 486 833 l 625 833 l 625 972 l 486 972 l 486 833 z "},"¯":{"ha":686,"x_min":139,"x_max":556,"o":"m 556 1250 l 139 1250 l 139 1458 l 556 1458 l 556 1250 z "},"°":{"ha":557,"x_min":69,"x_max":486,"o":"m 486 1111 l 486 764 l 417 764 l 417 694 l 139 694 l 139 764 l 69 764 l 69 1111 l 139 1111 l 139 1181 l 417 1181 l 417 1111 l 486 1111 m 347 833 l 347 1042 l 208 1042 l 208 833 l 347 833 z "},"±":{"ha":1111,"x_min":69,"x_max":972,"o":"m 347 347 l 347 625 l 69 625 l 69 903 l 347 903 l 347 1181 l 694 1181 l 694 903 l 972 903 l 972 625 l 694 625 l 694 347 l 347 347 m 972 0 l 69 0 l 69 278 l 972 278 l 972 0 z "},"²":{"ha":747,"x_min":69,"x_max":694,"o":"m 694 556 l 69 556 l 69 764 l 139 764 l 139 833 l 278 833 l 278 972 l 347 972 l 347 1111 l 208 1111 l 208 1042 l 69 1042 l 69 1250 l 556 1250 l 556 1111 l 694 1111 l 694 972 l 556 972 l 556 903 l 486 903 l 486 833 l 417 833 l 417 764 l 694 764 l 694 556 z "},"³":{"ha":686,"x_min":69,"x_max":625,"o":"m 556 903 l 625 903 l 625 694 l 486 694 l 486 556 l 69 556 l 69 764 l 347 764 l 347 833 l 208 833 l 208 972 l 347 972 l 347 1042 l 69 1042 l 69 1250 l 486 1250 l 486 1111 l 625 1111 l 625 972 l 556 972 l 556 903 z "},"´":{"ha":614,"x_min":69,"x_max":556,"o":"m 69 1181 l 69 1319 l 139 1319 l 139 1458 l 208 1458 l 208 1528 l 278 1528 l 278 1597 l 556 1597 l 556 1458 l 486 1458 l 486 1389 l 417 1389 l 417 1319 l 347 1319 l 347 1250 l 278 1250 l 278 1181 l 69 1181 z "},"¶":{"ha":994,"x_min":69,"x_max":972,"o":"m 694 -139 l 694 903 l 625 903 l 625 -139 l 417 -139 l 417 417 l 208 417 l 208 556 l 69 556 l 69 1111 l 972 1111 l 972 903 l 903 903 l 903 -139 l 694 -139 z "},"·":{"ha":696,"x_min":71,"x_max":626,"o":"m 418 764 l 418 694 l 557 694 l 557 556 l 626 556 l 626 417 l 557 417 l 557 278 l 418 278 l 418 208 l 279 208 l 279 278 l 140 278 l 140 417 l 71 417 l 71 556 l 140 556 l 140 694 l 279 694 l 279 764 l 418 764 z "},"¸":{"ha":661,"x_min":139,"x_max":556,"o":"m 278 -486 l 278 -347 l 208 -347 l 208 -139 l 417 -139 l 417 -278 l 556 -278 l 556 -556 l 486 -556 l 486 -625 l 139 -625 l 139 -486 l 278 -486 z "},"¹":{"ha":761,"x_min":69,"x_max":694,"o":"m 694 556 l 69 556 l 69 764 l 278 764 l 278 1042 l 69 1042 l 69 1244 l 556 1244 l 556 764 l 694 764 l 694 556 z "},"º":{"ha":583,"x_min":69,"x_max":556,"o":"m 556 1181 l 556 694 l 486 694 l 486 625 l 139 625 l 139 694 l 69 694 l 69 1181 l 139 1181 l 139 1250 l 486 1250 l 486 1181 l 556 1181 m 208 1042 l 208 833 l 417 833 l 417 1042 l 208 1042 m 69 556 l 556 556 l 556 417 l 69 417 l 69 556 z "},"»":{"ha":1044,"x_min":71,"x_max":971,"o":"m 210 417 l 210 556 l 71 556 l 71 764 l 210 764 l 210 694 l 418 694 l 418 556 l 486 556 l 486 417 l 418 417 l 418 278 l 210 278 l 210 208 l 71 208 l 71 417 l 210 417 m 694 417 l 694 556 l 556 556 l 556 764 l 694 764 l 694 694 l 903 694 l 903 556 l 971 556 l 971 417 l 903 417 l 903 278 l 694 278 l 694 208 l 556 208 l 556 417 l 694 417 z "},"¼":{"ha":1814,"x_min":69,"x_max":1736,"o":"m 1458 347 l 1458 278 l 1389 278 l 1389 208 l 1319 208 l 1319 139 l 1528 139 l 1528 347 l 1458 347 m 1319 1113 l 1319 764 l 1181 764 l 1181 556 l 1042 556 l 1042 278 l 903 278 l 903 69 l 833 69 l 833 -139 l 556 -139 l 556 139 l 625 139 l 625 417 l 764 417 l 764 625 l 903 625 l 903 903 l 1042 903 l 1042 1113 l 1319 1113 m 1528 625 l 1525 694 l 1736 694 l 1736 -139 l 1528 -139 l 1528 0 l 1111 0 l 1111 208 l 1181 208 l 1181 347 l 1250 347 l 1250 486 l 1389 486 l 1389 625 l 1528 625 m 694 486 l 69 486 l 69 694 l 278 694 l 278 972 l 69 972 l 69 1181 l 556 1181 l 556 694 l 694 694 l 694 486 z "},"½":{"ha":1894,"x_min":69,"x_max":1875,"o":"m 1875 -139 l 1250 -139 l 1250 69 l 1319 69 l 1319 139 l 1458 139 l 1458 278 l 1528 278 l 1528 417 l 1389 417 l 1389 347 l 1250 347 l 1250 556 l 1736 556 l 1736 417 l 1875 417 l 1875 278 l 1736 278 l 1736 208 l 1667 208 l 1667 139 l 1597 139 l 1597 69 l 1875 69 l 1875 -139 m 1319 1113 l 1319 764 l 1181 764 l 1181 556 l 1042 556 l 1042 278 l 903 278 l 903 69 l 833 69 l 833 -139 l 556 -139 l 556 139 l 625 139 l 625 417 l 764 417 l 764 625 l 903 625 l 903 903 l 1042 903 l 1042 1113 l 1319 1113 m 694 492 l 69 492 l 69 700 l 278 700 l 278 972 l 69 972 l 69 1181 l 556 1181 l 556 700 l 694 700 l 694 492 z "},"¾":{"ha":1819,"x_min":69,"x_max":1736,"o":"m 1458 347 l 1458 278 l 1389 278 l 1389 208 l 1319 208 l 1319 139 l 1528 139 l 1528 347 l 1458 347 m 1319 1113 l 1319 764 l 1181 764 l 1181 556 l 1042 556 l 1042 278 l 903 278 l 903 69 l 833 69 l 833 -139 l 556 -139 l 556 139 l 625 139 l 625 417 l 764 417 l 764 625 l 903 625 l 903 903 l 1042 903 l 1042 1113 l 1319 1113 m 1528 625 l 1525 694 l 1736 694 l 1736 -139 l 1528 -139 l 1528 0 l 1111 0 l 1111 208 l 1181 208 l 1181 347 l 1250 347 l 1250 486 l 1389 486 l 1389 625 l 1528 625 m 556 833 l 625 833 l 625 625 l 486 625 l 486 486 l 69 486 l 69 694 l 347 694 l 347 764 l 208 764 l 208 903 l 347 903 l 347 972 l 69 972 l 69 1181 l 486 1181 l 486 1042 l 625 1042 l 625 903 l 556 903 l 556 833 z "},"¿":{"ha":790,"x_min":69,"x_max":694,"o":"m 346 417 l 346 486 l 207 486 l 207 625 l 138 625 l 138 764 l 207 764 l 207 903 l 346 903 l 346 972 l 485 972 l 485 903 l 624 903 l 624 764 l 693 764 l 693 625 l 624 625 l 624 486 l 485 486 l 485 417 l 346 417 m 556 347 l 556 139 l 486 139 l 486 -69 l 347 -69 l 347 -208 l 486 -208 l 486 -139 l 694 -139 l 694 -417 l 208 -417 l 208 -278 l 69 -278 l 69 -69 l 139 -69 l 139 0 l 208 0 l 208 139 l 278 139 l 278 347 l 556 347 z "},"À":{"ha":1264,"x_min":69,"x_max":1181,"o":"m 1181 -139 l 903 -139 l 903 0 l 764 0 l 764 139 l 486 139 l 486 0 l 347 0 l 347 -139 l 208 -139 l 208 0 l 69 0 l 69 556 l 208 556 l 208 833 l 347 833 l 347 972 l 486 972 l 486 1111 l 764 1111 l 764 972 l 903 972 l 903 833 l 1042 833 l 1042 556 l 1181 556 l 1181 -139 m 667 1250 l 597 1250 l 597 1319 l 528 1319 l 528 1389 l 458 1389 l 458 1458 l 389 1458 l 389 1597 l 667 1597 l 667 1528 l 736 1528 l 736 1458 l 806 1458 l 806 1319 l 875 1319 l 875 1181 l 667 1181 l 667 1250 m 486 417 l 764 417 l 764 556 l 694 556 l 694 694 l 556 694 l 556 556 l 486 556 l 486 417 z "},"Á":{"ha":1264,"x_min":69,"x_max":1181,"o":"m 1181 -139 l 903 -139 l 903 0 l 764 0 l 764 139 l 486 139 l 486 0 l 347 0 l 347 -139 l 208 -139 l 208 0 l 69 0 l 69 556 l 208 556 l 208 833 l 347 833 l 347 972 l 486 972 l 486 1111 l 764 1111 l 764 972 l 903 972 l 903 833 l 1042 833 l 1042 556 l 1181 556 l 1181 -139 m 389 1181 l 389 1319 l 458 1319 l 458 1458 l 528 1458 l 528 1528 l 597 1528 l 597 1597 l 875 1597 l 875 1458 l 806 1458 l 806 1389 l 736 1389 l 736 1319 l 667 1319 l 667 1250 l 597 1250 l 597 1181 l 389 1181 m 486 417 l 764 417 l 764 556 l 694 556 l 694 694 l 556 694 l 556 556 l 486 556 l 486 417 z "},"Â":{"ha":1264,"x_min":69,"x_max":1181,"o":"m 1181 -139 l 903 -139 l 903 0 l 764 0 l 764 139 l 486 139 l 486 0 l 347 0 l 347 -139 l 208 -139 l 208 0 l 69 0 l 69 556 l 208 556 l 208 833 l 347 833 l 347 972 l 486 972 l 486 1111 l 764 1111 l 764 972 l 903 972 l 903 833 l 1042 833 l 1042 556 l 1181 556 l 1181 -139 m 424 1389 l 424 1458 l 493 1458 l 493 1528 l 563 1528 l 563 1597 l 701 1597 l 701 1528 l 771 1528 l 771 1458 l 840 1458 l 840 1389 l 910 1389 l 910 1250 l 840 1250 l 840 1181 l 771 1181 l 771 1250 l 701 1250 l 701 1389 l 563 1389 l 563 1250 l 493 1250 l 493 1181 l 424 1181 l 424 1250 l 354 1250 l 354 1389 l 424 1389 m 486 417 l 764 417 l 764 556 l 694 556 l 694 694 l 556 694 l 556 556 l 486 556 l 486 417 z "},"Ã":{"ha":1264,"x_min":69,"x_max":1181,"o":"m 1181 -139 l 903 -139 l 903 0 l 764 0 l 764 139 l 486 139 l 486 0 l 347 0 l 347 -139 l 208 -139 l 208 0 l 69 0 l 69 556 l 208 556 l 208 833 l 347 833 l 347 972 l 486 972 l 486 1111 l 764 1111 l 764 972 l 903 972 l 903 833 l 1042 833 l 1042 556 l 1181 556 l 1181 -139 m 319 1181 l 319 1319 l 389 1319 l 389 1458 l 458 1458 l 458 1597 l 597 1597 l 597 1458 l 667 1458 l 667 1389 l 736 1389 l 736 1528 l 806 1528 l 806 1597 l 944 1597 l 944 1389 l 875 1389 l 875 1250 l 806 1250 l 806 1181 l 667 1181 l 667 1250 l 597 1250 l 597 1319 l 528 1319 l 528 1181 l 319 1181 m 486 417 l 764 417 l 764 556 l 694 556 l 694 694 l 556 694 l 556 556 l 486 556 l 486 417 z "},"Ä":{"ha":1264,"x_min":69,"x_max":1181,"o":"m 1181 -139 l 903 -139 l 903 0 l 764 0 l 764 139 l 486 139 l 486 0 l 347 0 l 347 -139 l 208 -139 l 208 0 l 69 0 l 69 556 l 208 556 l 208 833 l 347 833 l 347 972 l 486 972 l 486 1111 l 764 1111 l 764 972 l 903 972 l 903 833 l 1042 833 l 1042 556 l 1181 556 l 1181 -139 m 597 1528 l 597 1250 l 319 1250 l 319 1528 l 597 1528 m 944 1528 l 944 1250 l 667 1250 l 667 1528 l 944 1528 m 486 417 l 764 417 l 764 556 l 694 556 l 694 694 l 556 694 l 556 556 l 486 556 l 486 417 z "},"Å":{"ha":1264,"x_min":69,"x_max":1181,"o":"m 1181 -139 l 903 -139 l 903 0 l 764 0 l 764 139 l 486 139 l 486 0 l 347 0 l 347 -139 l 208 -139 l 208 0 l 69 0 l 69 556 l 208 556 l 208 833 l 347 833 l 347 972 l 486 972 l 486 1111 l 764 1111 l 764 972 l 903 972 l 903 833 l 1042 833 l 1042 556 l 1181 556 l 1181 -139 m 806 1181 l 458 1181 l 458 1250 l 389 1250 l 389 1528 l 458 1528 l 458 1597 l 806 1597 l 806 1528 l 875 1528 l 875 1250 l 806 1250 l 806 1181 m 486 417 l 764 417 l 764 556 l 694 556 l 694 694 l 556 694 l 556 556 l 486 556 l 486 417 m 528 1319 l 736 1319 l 736 1458 l 528 1458 l 528 1319 z "},"Æ":{"ha":1774,"x_min":69,"x_max":1736,"o":"m 486 417 l 764 417 l 764 556 l 694 556 l 694 694 l 556 694 l 556 556 l 486 556 l 486 417 m 1736 -139 l 903 -139 l 903 0 l 764 0 l 764 139 l 486 139 l 486 0 l 347 0 l 347 -139 l 208 -139 l 208 0 l 69 0 l 69 556 l 208 556 l 208 833 l 347 833 l 347 972 l 486 972 l 486 1111 l 764 1111 l 764 972 l 1042 972 l 1042 1111 l 1597 1111 l 1736 1113 l 1736 833 l 1597 833 l 1597 694 l 1250 694 l 1250 556 l 1528 556 l 1528 417 l 1250 417 l 1250 278 l 1597 278 l 1597 139 l 1736 139 l 1736 -139 z "},"Ç":{"ha":1229,"x_min":69,"x_max":1181,"o":"m 1181 417 l 1181 0 l 1042 0 l 1042 -139 l 824 -139 l 824 -278 l 963 -278 l 963 -556 l 893 -556 l 893 -625 l 546 -625 l 546 -486 l 685 -486 l 685 -347 l 615 -347 l 615 -139 l 347 -139 l 347 139 l 208 139 l 208 278 l 69 278 l 69 694 l 208 694 l 208 833 l 347 833 l 347 972 l 486 972 l 486 1111 l 1042 1111 l 1042 972 l 1181 972 l 1181 694 l 764 694 l 764 833 l 625 833 l 625 694 l 486 694 l 486 556 l 625 556 l 625 417 l 764 417 l 764 278 l 903 278 l 903 417 l 1181 417 z "},"È":{"ha":940,"x_min":69,"x_max":903,"o":"m 903 -139 l 208 -139 l 208 0 l 69 0 l 69 972 l 208 972 l 208 1111 l 764 1111 l 903 1113 l 903 833 l 764 833 l 764 694 l 417 694 l 417 556 l 694 556 l 694 417 l 417 417 l 417 278 l 764 278 l 764 139 l 903 139 l 903 -139 m 506 1250 l 436 1250 l 436 1319 l 367 1319 l 367 1389 l 297 1389 l 297 1458 l 228 1458 l 228 1597 l 506 1597 l 506 1528 l 575 1528 l 575 1458 l 644 1458 l 644 1319 l 714 1319 l 714 1181 l 506 1181 l 506 1250 z "},"É":{"ha":940,"x_min":69,"x_max":903,"o":"m 903 -139 l 208 -139 l 208 0 l 69 0 l 69 972 l 208 972 l 208 1111 l 764 1111 l 903 1113 l 903 833 l 764 833 l 764 694 l 417 694 l 417 556 l 694 556 l 694 417 l 417 417 l 417 278 l 764 278 l 764 139 l 903 139 l 903 -139 m 228 1181 l 228 1319 l 297 1319 l 297 1458 l 367 1458 l 367 1528 l 436 1528 l 436 1597 l 714 1597 l 714 1458 l 644 1458 l 644 1389 l 575 1389 l 575 1319 l 506 1319 l 506 1250 l 436 1250 l 436 1181 l 228 1181 z "},"Ê":{"ha":940,"x_min":69,"x_max":903,"o":"m 903 -139 l 208 -139 l 208 0 l 69 0 l 69 972 l 208 972 l 208 1111 l 764 1111 l 903 1113 l 903 833 l 764 833 l 764 694 l 417 694 l 417 556 l 694 556 l 694 417 l 417 417 l 417 278 l 764 278 l 764 139 l 903 139 l 903 -139 m 263 1389 l 263 1458 l 332 1458 l 332 1528 l 401 1528 l 401 1597 l 540 1597 l 540 1528 l 610 1528 l 610 1458 l 679 1458 l 679 1389 l 749 1389 l 749 1250 l 679 1250 l 679 1181 l 610 1181 l 610 1250 l 540 1250 l 540 1389 l 401 1389 l 401 1250 l 332 1250 l 332 1181 l 263 1181 l 263 1250 l 193 1250 l 193 1389 l 263 1389 z "},"Ë":{"ha":940,"x_min":69,"x_max":903,"o":"m 903 -139 l 208 -139 l 208 0 l 69 0 l 69 972 l 208 972 l 208 1111 l 764 1111 l 903 1113 l 903 833 l 764 833 l 764 694 l 417 694 l 417 556 l 694 556 l 694 417 l 417 417 l 417 278 l 764 278 l 764 139 l 903 139 l 903 -139 m 436 1528 l 436 1250 l 158 1250 l 158 1528 l 436 1528 m 783 1528 l 783 1250 l 506 1250 l 506 1528 l 783 1528 z "},"Ì":{"ha":629,"x_min":69,"x_max":558,"o":"m 556 1042 l 556 -139 l 208 -139 l 208 0 l 69 0 l 69 1042 l 556 1042 m 350 1250 l 281 1250 l 281 1319 l 211 1319 l 211 1389 l 142 1389 l 142 1458 l 72 1458 l 72 1597 l 350 1597 l 350 1528 l 419 1528 l 419 1458 l 489 1458 l 489 1319 l 558 1319 l 558 1181 l 350 1181 l 350 1250 z "},"Í":{"ha":629,"x_min":69,"x_max":558,"o":"m 556 1042 l 556 -139 l 208 -139 l 208 0 l 69 0 l 69 1042 l 556 1042 m 72 1181 l 72 1319 l 142 1319 l 142 1458 l 211 1458 l 211 1528 l 281 1528 l 281 1597 l 558 1597 l 558 1458 l 489 1458 l 489 1389 l 419 1389 l 419 1319 l 350 1319 l 350 1250 l 281 1250 l 281 1181 l 72 1181 z "},"Î":{"ha":629,"x_min":38,"x_max":593,"o":"m 556 1042 l 556 -139 l 208 -139 l 208 0 l 69 0 l 69 1042 l 556 1042 m 107 1389 l 107 1458 l 176 1458 l 176 1528 l 246 1528 l 246 1597 l 385 1597 l 385 1528 l 454 1528 l 454 1458 l 524 1458 l 524 1389 l 593 1389 l 593 1250 l 524 1250 l 524 1181 l 454 1181 l 454 1250 l 385 1250 l 385 1389 l 246 1389 l 246 1250 l 176 1250 l 176 1181 l 107 1181 l 107 1250 l 38 1250 l 38 1389 l 107 1389 z "},"Ï":{"ha":629,"x_min":3,"x_max":628,"o":"m 556 1042 l 556 -139 l 208 -139 l 208 0 l 69 0 l 69 1042 l 556 1042 m 281 1528 l 281 1250 l 3 1250 l 3 1528 l 281 1528 m 628 1528 l 628 1250 l 350 1250 l 350 1528 l 628 1528 z "},"Ð":{"ha":1382,"x_min":0,"x_max":1319,"o":"m 69 833 l 69 1111 l 1042 1111 l 1042 972 l 1181 972 l 1181 833 l 1319 833 l 1319 139 l 1181 139 l 1181 0 l 1042 0 l 1042 -139 l 208 -139 l 208 417 l 0 417 l 0 694 l 208 694 l 208 833 l 69 833 m 764 139 l 764 208 l 903 208 l 903 417 l 1042 417 l 1042 556 l 903 556 l 903 694 l 764 694 l 764 833 l 625 833 l 625 139 l 764 139 z "},"Ñ":{"ha":1200,"x_min":0,"x_max":1111,"o":"m 903 -139 l 903 0 l 764 0 l 764 208 l 625 208 l 625 417 l 486 417 l 486 -139 l 139 -139 l 139 833 l 0 833 l 0 972 l 139 972 l 139 1111 l 417 1111 l 417 972 l 556 972 l 556 764 l 625 764 l 625 625 l 764 625 l 764 1111 l 972 1111 l 972 972 l 1111 972 l 1111 -139 l 903 -139 m 288 1181 l 288 1319 l 357 1319 l 357 1458 l 426 1458 l 426 1597 l 565 1597 l 565 1458 l 635 1458 l 635 1389 l 704 1389 l 704 1528 l 774 1528 l 774 1597 l 913 1597 l 913 1389 l 843 1389 l 843 1250 l 774 1250 l 774 1181 l 635 1181 l 635 1250 l 565 1250 l 565 1319 l 496 1319 l 496 1181 l 288 1181 z "},"Ò":{"ha":1242,"x_min":69,"x_max":1181,"o":"m 208 139 l 69 139 l 69 833 l 208 833 l 208 972 l 486 972 l 486 1111 l 764 1111 l 764 972 l 1042 972 l 1042 833 l 1181 833 l 1181 139 l 1042 139 l 1042 0 l 833 0 l 833 -139 l 417 -139 l 417 0 l 208 0 l 208 139 m 656 1250 l 586 1250 l 586 1319 l 517 1319 l 517 1389 l 447 1389 l 447 1458 l 378 1458 l 378 1597 l 656 1597 l 656 1528 l 725 1528 l 725 1458 l 794 1458 l 794 1319 l 864 1319 l 864 1181 l 656 1181 l 656 1250 m 556 694 l 417 694 l 417 417 l 556 417 l 556 278 l 694 278 l 694 417 l 833 417 l 833 694 l 694 694 l 694 833 l 556 833 l 556 694 z "},"Ó":{"ha":1242,"x_min":69,"x_max":1181,"o":"m 208 139 l 69 139 l 69 833 l 208 833 l 208 972 l 486 972 l 486 1111 l 764 1111 l 764 972 l 1042 972 l 1042 833 l 1181 833 l 1181 139 l 1042 139 l 1042 0 l 833 0 l 833 -139 l 417 -139 l 417 0 l 208 0 l 208 139 m 378 1181 l 378 1319 l 447 1319 l 447 1458 l 517 1458 l 517 1528 l 586 1528 l 586 1597 l 864 1597 l 864 1458 l 794 1458 l 794 1389 l 725 1389 l 725 1319 l 656 1319 l 656 1250 l 586 1250 l 586 1181 l 378 1181 m 556 694 l 417 694 l 417 417 l 556 417 l 556 278 l 694 278 l 694 417 l 833 417 l 833 694 l 694 694 l 694 833 l 556 833 l 556 694 z "},"Ô":{"ha":1242,"x_min":69,"x_max":1181,"o":"m 208 139 l 69 139 l 69 833 l 208 833 l 208 972 l 486 972 l 486 1111 l 764 1111 l 764 972 l 1042 972 l 1042 833 l 1181 833 l 1181 139 l 1042 139 l 1042 0 l 833 0 l 833 -139 l 417 -139 l 417 0 l 208 0 l 208 139 m 413 1389 l 413 1458 l 482 1458 l 482 1528 l 551 1528 l 551 1597 l 690 1597 l 690 1528 l 760 1528 l 760 1458 l 829 1458 l 829 1389 l 899 1389 l 899 1250 l 829 1250 l 829 1181 l 760 1181 l 760 1250 l 690 1250 l 690 1389 l 551 1389 l 551 1250 l 482 1250 l 482 1181 l 413 1181 l 413 1250 l 343 1250 l 343 1389 l 413 1389 m 556 694 l 417 694 l 417 417 l 556 417 l 556 278 l 694 278 l 694 417 l 833 417 l 833 694 l 694 694 l 694 833 l 556 833 l 556 694 z "},"Õ":{"ha":1242,"x_min":69,"x_max":1181,"o":"m 208 139 l 69 139 l 69 833 l 208 833 l 208 972 l 486 972 l 486 1111 l 764 1111 l 764 972 l 1042 972 l 1042 833 l 1181 833 l 1181 139 l 1042 139 l 1042 0 l 833 0 l 833 -139 l 417 -139 l 417 0 l 208 0 l 208 139 m 308 1181 l 308 1319 l 378 1319 l 378 1458 l 447 1458 l 447 1597 l 586 1597 l 586 1458 l 656 1458 l 656 1389 l 725 1389 l 725 1528 l 794 1528 l 794 1597 l 933 1597 l 933 1389 l 864 1389 l 864 1250 l 794 1250 l 794 1181 l 656 1181 l 656 1250 l 586 1250 l 586 1319 l 517 1319 l 517 1181 l 308 1181 m 556 694 l 417 694 l 417 417 l 556 417 l 556 278 l 694 278 l 694 417 l 833 417 l 833 694 l 694 694 l 694 833 l 556 833 l 556 694 z "},"Ö":{"ha":1242,"x_min":69,"x_max":1181,"o":"m 208 139 l 69 139 l 69 833 l 208 833 l 208 972 l 486 972 l 486 1111 l 764 1111 l 764 972 l 1042 972 l 1042 833 l 1181 833 l 1181 139 l 1042 139 l 1042 0 l 833 0 l 833 -139 l 417 -139 l 417 0 l 208 0 l 208 139 m 586 1528 l 586 1250 l 308 1250 l 308 1528 l 586 1528 m 933 1528 l 933 1250 l 656 1250 l 656 1528 l 933 1528 m 556 694 l 417 694 l 417 417 l 556 417 l 556 278 l 694 278 l 694 417 l 833 417 l 833 694 l 694 694 l 694 833 l 556 833 l 556 694 z "},"×":{"ha":792,"x_min":83,"x_max":708,"o":"m 153 694 l 153 764 l 292 764 l 292 694 l 361 694 l 361 556 l 431 556 l 431 694 l 500 694 l 500 764 l 639 764 l 639 694 l 708 694 l 708 556 l 639 556 l 639 486 l 569 486 l 569 417 l 639 417 l 639 347 l 708 347 l 708 208 l 639 208 l 639 139 l 500 139 l 500 208 l 431 208 l 431 347 l 361 347 l 361 208 l 292 208 l 292 139 l 153 139 l 153 208 l 83 208 l 83 347 l 153 347 l 153 417 l 222 417 l 222 486 l 153 486 l 153 556 l 83 556 l 83 694 l 153 694 z "},"Ø":{"ha":1242,"x_min":69,"x_max":1181,"o":"m 1111 1181 l 1111 1111 l 1042 1111 l 1042 833 l 1181 833 l 1181 139 l 1042 139 l 1042 0 l 833 0 l 833 -139 l 486 -139 l 486 -208 l 208 -208 l 208 -139 l 278 -139 l 278 0 l 208 0 l 208 139 l 69 139 l 69 833 l 208 833 l 208 972 l 486 972 l 486 1111 l 764 1111 l 764 972 l 833 972 l 833 1111 l 903 1111 l 903 1181 l 1111 1181 m 556 694 l 417 694 l 417 417 l 556 417 l 556 278 l 694 278 l 694 417 l 833 417 l 833 694 l 694 694 l 694 833 l 556 833 l 556 694 z "},"Ù":{"ha":1250,"x_min":69,"x_max":1181,"o":"m 1181 1111 l 1181 139 l 1042 139 l 1042 0 l 764 0 l 764 -139 l 486 -139 l 486 0 l 69 0 l 69 972 l 208 972 l 208 1111 l 486 1111 l 486 486 l 556 486 l 556 347 l 694 347 l 694 486 l 764 486 l 764 1111 l 1181 1111 m 660 1250 l 590 1250 l 590 1319 l 521 1319 l 521 1389 l 451 1389 l 451 1458 l 382 1458 l 382 1597 l 660 1597 l 660 1528 l 729 1528 l 729 1458 l 799 1458 l 799 1319 l 868 1319 l 868 1181 l 660 1181 l 660 1250 z "},"Ú":{"ha":1250,"x_min":69,"x_max":1181,"o":"m 1181 1111 l 1181 139 l 1042 139 l 1042 0 l 764 0 l 764 -139 l 486 -139 l 486 0 l 69 0 l 69 972 l 208 972 l 208 1111 l 486 1111 l 486 486 l 556 486 l 556 347 l 694 347 l 694 486 l 764 486 l 764 1111 l 1181 1111 m 382 1181 l 382 1319 l 451 1319 l 451 1458 l 521 1458 l 521 1528 l 590 1528 l 590 1597 l 868 1597 l 868 1458 l 799 1458 l 799 1389 l 729 1389 l 729 1319 l 660 1319 l 660 1250 l 590 1250 l 590 1181 l 382 1181 z "},"Û":{"ha":1250,"x_min":69,"x_max":1181,"o":"m 1181 1111 l 1181 139 l 1042 139 l 1042 0 l 764 0 l 764 -139 l 486 -139 l 486 0 l 69 0 l 69 972 l 208 972 l 208 1111 l 486 1111 l 486 486 l 556 486 l 556 347 l 694 347 l 694 486 l 764 486 l 764 1111 l 1181 1111 m 417 1389 l 417 1458 l 486 1458 l 486 1528 l 556 1528 l 556 1597 l 694 1597 l 694 1528 l 764 1528 l 764 1458 l 833 1458 l 833 1389 l 903 1389 l 903 1250 l 833 1250 l 833 1181 l 764 1181 l 764 1250 l 694 1250 l 694 1389 l 556 1389 l 556 1250 l 486 1250 l 486 1181 l 417 1181 l 417 1250 l 347 1250 l 347 1389 l 417 1389 z "},"Ü":{"ha":1250,"x_min":69,"x_max":1181,"o":"m 1181 1111 l 1181 139 l 1042 139 l 1042 0 l 764 0 l 764 -139 l 486 -139 l 486 0 l 69 0 l 69 972 l 208 972 l 208 1111 l 486 1111 l 486 486 l 556 486 l 556 347 l 694 347 l 694 486 l 764 486 l 764 1111 l 1181 1111 m 590 1528 l 590 1250 l 313 1250 l 313 1528 l 590 1528 m 938 1528 l 938 1250 l 660 1250 l 660 1528 l 938 1528 z "},"Ý":{"ha":1000,"x_min":14,"x_max":986,"o":"m 986 1111 l 986 764 l 847 764 l 847 556 l 708 556 l 708 -139 l 431 -139 l 431 0 l 292 0 l 292 556 l 153 556 l 153 764 l 14 764 l 14 1111 l 361 1111 l 361 972 l 431 972 l 431 833 l 569 833 l 569 972 l 639 972 l 639 1111 l 986 1111 m 257 1181 l 257 1319 l 326 1319 l 326 1458 l 396 1458 l 396 1528 l 465 1528 l 465 1597 l 743 1597 l 743 1458 l 674 1458 l 674 1389 l 604 1389 l 604 1319 l 535 1319 l 535 1250 l 465 1250 l 465 1181 l 257 1181 z "},"Þ":{"ha":1000,"x_min":69,"x_max":972,"o":"m 69 -139 l 69 1111 l 347 1111 l 347 903 l 694 903 l 694 764 l 833 764 l 833 625 l 972 625 l 972 347 l 833 347 l 833 208 l 694 208 l 694 69 l 347 69 l 347 -139 l 69 -139 m 625 347 l 625 417 l 694 417 l 694 556 l 625 556 l 625 625 l 347 625 l 347 347 l 625 347 z "},"ß":{"ha":1032,"x_min":69,"x_max":972,"o":"m 486 139 l 694 139 l 694 278 l 556 278 l 556 347 l 486 347 l 486 486 l 556 486 l 556 556 l 694 556 l 694 694 l 625 694 l 625 833 l 417 833 l 417 -139 l 69 -139 l 69 972 l 208 972 l 208 1111 l 694 1111 l 694 972 l 833 972 l 833 833 l 972 833 l 972 486 l 833 486 l 833 347 l 972 347 l 972 -139 l 486 -139 l 486 139 z "},"à":{"ha":1264,"x_min":69,"x_max":1181,"o":"m 1181 -139 l 903 -139 l 903 0 l 764 0 l 764 139 l 486 139 l 486 0 l 347 0 l 347 -139 l 208 -139 l 208 0 l 69 0 l 69 556 l 208 556 l 208 833 l 347 833 l 347 972 l 486 972 l 486 1111 l 764 1111 l 764 972 l 903 972 l 903 833 l 1042 833 l 1042 556 l 1181 556 l 1181 -139 m 667 1250 l 597 1250 l 597 1319 l 528 1319 l 528 1389 l 458 1389 l 458 1458 l 389 1458 l 389 1597 l 667 1597 l 667 1528 l 736 1528 l 736 1458 l 806 1458 l 806 1319 l 875 1319 l 875 1181 l 667 1181 l 667 1250 m 486 417 l 764 417 l 764 556 l 694 556 l 694 694 l 556 694 l 556 556 l 486 556 l 486 417 z "},"á":{"ha":1264,"x_min":69,"x_max":1181,"o":"m 1181 -139 l 903 -139 l 903 0 l 764 0 l 764 139 l 486 139 l 486 0 l 347 0 l 347 -139 l 208 -139 l 208 0 l 69 0 l 69 556 l 208 556 l 208 833 l 347 833 l 347 972 l 486 972 l 486 1111 l 764 1111 l 764 972 l 903 972 l 903 833 l 1042 833 l 1042 556 l 1181 556 l 1181 -139 m 389 1181 l 389 1319 l 458 1319 l 458 1458 l 528 1458 l 528 1528 l 597 1528 l 597 1597 l 875 1597 l 875 1458 l 806 1458 l 806 1389 l 736 1389 l 736 1319 l 667 1319 l 667 1250 l 597 1250 l 597 1181 l 389 1181 m 486 417 l 764 417 l 764 556 l 694 556 l 694 694 l 556 694 l 556 556 l 486 556 l 486 417 z "},"â":{"ha":1264,"x_min":69,"x_max":1181,"o":"m 1181 -139 l 903 -139 l 903 0 l 764 0 l 764 139 l 486 139 l 486 0 l 347 0 l 347 -139 l 208 -139 l 208 0 l 69 0 l 69 556 l 208 556 l 208 833 l 347 833 l 347 972 l 486 972 l 486 1111 l 764 1111 l 764 972 l 903 972 l 903 833 l 1042 833 l 1042 556 l 1181 556 l 1181 -139 m 424 1389 l 424 1458 l 493 1458 l 493 1528 l 563 1528 l 563 1597 l 701 1597 l 701 1528 l 771 1528 l 771 1458 l 840 1458 l 840 1389 l 910 1389 l 910 1250 l 840 1250 l 840 1181 l 771 1181 l 771 1250 l 701 1250 l 701 1389 l 563 1389 l 563 1250 l 493 1250 l 493 1181 l 424 1181 l 424 1250 l 354 1250 l 354 1389 l 424 1389 m 486 417 l 764 417 l 764 556 l 694 556 l 694 694 l 556 694 l 556 556 l 486 556 l 486 417 z "},"ã":{"ha":1264,"x_min":69,"x_max":1181,"o":"m 1181 -139 l 903 -139 l 903 0 l 764 0 l 764 139 l 486 139 l 486 0 l 347 0 l 347 -139 l 208 -139 l 208 0 l 69 0 l 69 556 l 208 556 l 208 833 l 347 833 l 347 972 l 486 972 l 486 1111 l 764 1111 l 764 972 l 903 972 l 903 833 l 1042 833 l 1042 556 l 1181 556 l 1181 -139 m 319 1181 l 319 1319 l 389 1319 l 389 1458 l 458 1458 l 458 1597 l 597 1597 l 597 1458 l 667 1458 l 667 1389 l 736 1389 l 736 1528 l 806 1528 l 806 1597 l 944 1597 l 944 1389 l 875 1389 l 875 1250 l 806 1250 l 806 1181 l 667 1181 l 667 1250 l 597 1250 l 597 1319 l 528 1319 l 528 1181 l 319 1181 m 486 417 l 764 417 l 764 556 l 694 556 l 694 694 l 556 694 l 556 556 l 486 556 l 486 417 z "},"ä":{"ha":1264,"x_min":69,"x_max":1181,"o":"m 1181 -139 l 903 -139 l 903 0 l 764 0 l 764 139 l 486 139 l 486 0 l 347 0 l 347 -139 l 208 -139 l 208 0 l 69 0 l 69 556 l 208 556 l 208 833 l 347 833 l 347 972 l 486 972 l 486 1111 l 764 1111 l 764 972 l 903 972 l 903 833 l 1042 833 l 1042 556 l 1181 556 l 1181 -139 m 597 1528 l 597 1250 l 319 1250 l 319 1528 l 597 1528 m 944 1528 l 944 1250 l 667 1250 l 667 1528 l 944 1528 m 486 417 l 764 417 l 764 556 l 694 556 l 694 694 l 556 694 l 556 556 l 486 556 l 486 417 z "},"å":{"ha":1264,"x_min":69,"x_max":1181,"o":"m 1181 -139 l 903 -139 l 903 0 l 764 0 l 764 139 l 486 139 l 486 0 l 347 0 l 347 -139 l 208 -139 l 208 0 l 69 0 l 69 556 l 208 556 l 208 833 l 347 833 l 347 972 l 486 972 l 486 1111 l 764 1111 l 764 972 l 903 972 l 903 833 l 1042 833 l 1042 556 l 1181 556 l 1181 -139 m 806 1181 l 458 1181 l 458 1250 l 389 1250 l 389 1528 l 458 1528 l 458 1597 l 806 1597 l 806 1528 l 875 1528 l 875 1250 l 806 1250 l 806 1181 m 486 417 l 764 417 l 764 556 l 694 556 l 694 694 l 556 694 l 556 556 l 486 556 l 486 417 m 528 1319 l 736 1319 l 736 1458 l 528 1458 l 528 1319 z "},"æ":{"ha":1774,"x_min":69,"x_max":1736,"o":"m 486 417 l 764 417 l 764 556 l 694 556 l 694 694 l 556 694 l 556 556 l 486 556 l 486 417 m 1736 -139 l 903 -139 l 903 0 l 764 0 l 764 139 l 486 139 l 486 0 l 347 0 l 347 -139 l 208 -139 l 208 0 l 69 0 l 69 556 l 208 556 l 208 833 l 347 833 l 347 972 l 486 972 l 486 1111 l 764 1111 l 764 972 l 1042 972 l 1042 1111 l 1597 1111 l 1736 1113 l 1736 833 l 1597 833 l 1597 694 l 1250 694 l 1250 556 l 1528 556 l 1528 417 l 1250 417 l 1250 278 l 1597 278 l 1597 139 l 1736 139 l 1736 -139 z "},"ç":{"ha":1229,"x_min":69,"x_max":1181,"o":"m 1181 417 l 1181 0 l 1042 0 l 1042 -139 l 824 -139 l 824 -278 l 963 -278 l 963 -556 l 893 -556 l 893 -625 l 546 -625 l 546 -486 l 685 -486 l 685 -347 l 615 -347 l 615 -139 l 347 -139 l 347 139 l 208 139 l 208 278 l 69 278 l 69 694 l 208 694 l 208 833 l 347 833 l 347 972 l 486 972 l 486 1111 l 1042 1111 l 1042 972 l 1181 972 l 1181 694 l 764 694 l 764 833 l 625 833 l 625 694 l 486 694 l 486 556 l 625 556 l 625 417 l 764 417 l 764 278 l 903 278 l 903 417 l 1181 417 z "},"è":{"ha":940,"x_min":69,"x_max":903,"o":"m 903 -139 l 208 -139 l 208 0 l 69 0 l 69 972 l 208 972 l 208 1111 l 764 1111 l 903 1113 l 903 833 l 764 833 l 764 694 l 417 694 l 417 556 l 694 556 l 694 417 l 417 417 l 417 278 l 764 278 l 764 139 l 903 139 l 903 -139 m 506 1250 l 436 1250 l 436 1319 l 367 1319 l 367 1389 l 297 1389 l 297 1458 l 228 1458 l 228 1597 l 506 1597 l 506 1528 l 575 1528 l 575 1458 l 644 1458 l 644 1319 l 714 1319 l 714 1181 l 506 1181 l 506 1250 z "},"é":{"ha":940,"x_min":69,"x_max":903,"o":"m 903 -139 l 208 -139 l 208 0 l 69 0 l 69 972 l 208 972 l 208 1111 l 764 1111 l 903 1113 l 903 833 l 764 833 l 764 694 l 417 694 l 417 556 l 694 556 l 694 417 l 417 417 l 417 278 l 764 278 l 764 139 l 903 139 l 903 -139 m 228 1181 l 228 1319 l 297 1319 l 297 1458 l 367 1458 l 367 1528 l 436 1528 l 436 1597 l 714 1597 l 714 1458 l 644 1458 l 644 1389 l 575 1389 l 575 1319 l 506 1319 l 506 1250 l 436 1250 l 436 1181 l 228 1181 z "},"ê":{"ha":940,"x_min":69,"x_max":903,"o":"m 903 -139 l 208 -139 l 208 0 l 69 0 l 69 972 l 208 972 l 208 1111 l 764 1111 l 903 1113 l 903 833 l 764 833 l 764 694 l 417 694 l 417 556 l 694 556 l 694 417 l 417 417 l 417 278 l 764 278 l 764 139 l 903 139 l 903 -139 m 263 1389 l 263 1458 l 332 1458 l 332 1528 l 401 1528 l 401 1597 l 540 1597 l 540 1528 l 610 1528 l 610 1458 l 679 1458 l 679 1389 l 749 1389 l 749 1250 l 679 1250 l 679 1181 l 610 1181 l 610 1250 l 540 1250 l 540 1389 l 401 1389 l 401 1250 l 332 1250 l 332 1181 l 263 1181 l 263 1250 l 193 1250 l 193 1389 l 263 1389 z "},"ë":{"ha":940,"x_min":69,"x_max":903,"o":"m 903 -139 l 208 -139 l 208 0 l 69 0 l 69 972 l 208 972 l 208 1111 l 764 1111 l 903 1113 l 903 833 l 764 833 l 764 694 l 417 694 l 417 556 l 694 556 l 694 417 l 417 417 l 417 278 l 764 278 l 764 139 l 903 139 l 903 -139 m 436 1528 l 436 1250 l 158 1250 l 158 1528 l 436 1528 m 783 1528 l 783 1250 l 506 1250 l 506 1528 l 783 1528 z "},"ì":{"ha":629,"x_min":69,"x_max":558,"o":"m 556 1042 l 556 -139 l 208 -139 l 208 0 l 69 0 l 69 1042 l 556 1042 m 350 1250 l 281 1250 l 281 1319 l 211 1319 l 211 1389 l 142 1389 l 142 1458 l 72 1458 l 72 1597 l 350 1597 l 350 1528 l 419 1528 l 419 1458 l 489 1458 l 489 1319 l 558 1319 l 558 1181 l 350 1181 l 350 1250 z "},"í":{"ha":629,"x_min":69,"x_max":558,"o":"m 556 1042 l 556 -139 l 208 -139 l 208 0 l 69 0 l 69 1042 l 556 1042 m 72 1181 l 72 1319 l 142 1319 l 142 1458 l 211 1458 l 211 1528 l 281 1528 l 281 1597 l 558 1597 l 558 1458 l 489 1458 l 489 1389 l 419 1389 l 419 1319 l 350 1319 l 350 1250 l 281 1250 l 281 1181 l 72 1181 z "},"î":{"ha":629,"x_min":38,"x_max":593,"o":"m 556 1042 l 556 -139 l 208 -139 l 208 0 l 69 0 l 69 1042 l 556 1042 m 107 1389 l 107 1458 l 176 1458 l 176 1528 l 246 1528 l 246 1597 l 385 1597 l 385 1528 l 454 1528 l 454 1458 l 524 1458 l 524 1389 l 593 1389 l 593 1250 l 524 1250 l 524 1181 l 454 1181 l 454 1250 l 385 1250 l 385 1389 l 246 1389 l 246 1250 l 176 1250 l 176 1181 l 107 1181 l 107 1250 l 38 1250 l 38 1389 l 107 1389 z "},"ï":{"ha":629,"x_min":3,"x_max":628,"o":"m 556 1042 l 556 -139 l 208 -139 l 208 0 l 69 0 l 69 1042 l 556 1042 m 281 1528 l 281 1250 l 3 1250 l 3 1528 l 281 1528 m 628 1528 l 628 1250 l 350 1250 l 350 1528 l 628 1528 z "},"ð":{"ha":910,"x_min":69,"x_max":833,"o":"m 139 1042 l 278 1042 l 278 1111 l 417 1111 l 417 1042 l 694 1042 l 694 903 l 832 903 l 833 764 l 833 0 l 694 0 l 694 -139 l 208 -139 l 208 0 l 69 0 l 69 486 l 208 486 l 208 625 l 556 625 l 556 764 l 417 764 l 417 694 l 278 694 l 278 833 l 139 833 l 139 1042 m 625 347 l 278 347 l 278 208 l 625 208 l 625 347 z "},"ñ":{"ha":1200,"x_min":0,"x_max":1111,"o":"m 903 -139 l 903 0 l 764 0 l 764 208 l 625 208 l 625 417 l 486 417 l 486 -139 l 139 -139 l 139 833 l 0 833 l 0 972 l 139 972 l 139 1111 l 417 1111 l 417 972 l 556 972 l 556 764 l 625 764 l 625 625 l 764 625 l 764 1111 l 972 1111 l 972 972 l 1111 972 l 1111 -139 l 903 -139 m 288 1181 l 288 1319 l 357 1319 l 357 1458 l 426 1458 l 426 1597 l 565 1597 l 565 1458 l 635 1458 l 635 1389 l 704 1389 l 704 1528 l 774 1528 l 774 1597 l 913 1597 l 913 1389 l 843 1389 l 843 1250 l 774 1250 l 774 1181 l 635 1181 l 635 1250 l 565 1250 l 565 1319 l 496 1319 l 496 1181 l 288 1181 z "},"ò":{"ha":1242,"x_min":69,"x_max":1181,"o":"m 208 139 l 69 139 l 69 833 l 208 833 l 208 972 l 486 972 l 486 1111 l 764 1111 l 764 972 l 1042 972 l 1042 833 l 1181 833 l 1181 139 l 1042 139 l 1042 0 l 833 0 l 833 -139 l 417 -139 l 417 0 l 208 0 l 208 139 m 656 1250 l 586 1250 l 586 1319 l 517 1319 l 517 1389 l 447 1389 l 447 1458 l 378 1458 l 378 1597 l 656 1597 l 656 1528 l 725 1528 l 725 1458 l 794 1458 l 794 1319 l 864 1319 l 864 1181 l 656 1181 l 656 1250 m 556 694 l 417 694 l 417 417 l 556 417 l 556 278 l 694 278 l 694 417 l 833 417 l 833 694 l 694 694 l 694 833 l 556 833 l 556 694 z "},"ó":{"ha":1242,"x_min":69,"x_max":1181,"o":"m 208 139 l 69 139 l 69 833 l 208 833 l 208 972 l 486 972 l 486 1111 l 764 1111 l 764 972 l 1042 972 l 1042 833 l 1181 833 l 1181 139 l 1042 139 l 1042 0 l 833 0 l 833 -139 l 417 -139 l 417 0 l 208 0 l 208 139 m 378 1181 l 378 1319 l 447 1319 l 447 1458 l 517 1458 l 517 1528 l 586 1528 l 586 1597 l 864 1597 l 864 1458 l 794 1458 l 794 1389 l 725 1389 l 725 1319 l 656 1319 l 656 1250 l 586 1250 l 586 1181 l 378 1181 m 556 694 l 417 694 l 417 417 l 556 417 l 556 278 l 694 278 l 694 417 l 833 417 l 833 694 l 694 694 l 694 833 l 556 833 l 556 694 z "},"ô":{"ha":1242,"x_min":69,"x_max":1181,"o":"m 208 139 l 69 139 l 69 833 l 208 833 l 208 972 l 486 972 l 486 1111 l 764 1111 l 764 972 l 1042 972 l 1042 833 l 1181 833 l 1181 139 l 1042 139 l 1042 0 l 833 0 l 833 -139 l 417 -139 l 417 0 l 208 0 l 208 139 m 413 1389 l 413 1458 l 482 1458 l 482 1528 l 551 1528 l 551 1597 l 690 1597 l 690 1528 l 760 1528 l 760 1458 l 829 1458 l 829 1389 l 899 1389 l 899 1250 l 829 1250 l 829 1181 l 760 1181 l 760 1250 l 690 1250 l 690 1389 l 551 1389 l 551 1250 l 482 1250 l 482 1181 l 413 1181 l 413 1250 l 343 1250 l 343 1389 l 413 1389 m 556 694 l 417 694 l 417 417 l 556 417 l 556 278 l 694 278 l 694 417 l 833 417 l 833 694 l 694 694 l 694 833 l 556 833 l 556 694 z "},"õ":{"ha":1242,"x_min":69,"x_max":1181,"o":"m 208 139 l 69 139 l 69 833 l 208 833 l 208 972 l 486 972 l 486 1111 l 764 1111 l 764 972 l 1042 972 l 1042 833 l 1181 833 l 1181 139 l 1042 139 l 1042 0 l 833 0 l 833 -139 l 417 -139 l 417 0 l 208 0 l 208 139 m 308 1181 l 308 1319 l 378 1319 l 378 1458 l 447 1458 l 447 1597 l 586 1597 l 586 1458 l 656 1458 l 656 1389 l 725 1389 l 725 1528 l 794 1528 l 794 1597 l 933 1597 l 933 1389 l 864 1389 l 864 1250 l 794 1250 l 794 1181 l 656 1181 l 656 1250 l 586 1250 l 586 1319 l 517 1319 l 517 1181 l 308 1181 m 556 694 l 417 694 l 417 417 l 556 417 l 556 278 l 694 278 l 694 417 l 833 417 l 833 694 l 694 694 l 694 833 l 556 833 l 556 694 z "},"ö":{"ha":1242,"x_min":69,"x_max":1181,"o":"m 208 139 l 69 139 l 69 833 l 208 833 l 208 972 l 486 972 l 486 1111 l 764 1111 l 764 972 l 1042 972 l 1042 833 l 1181 833 l 1181 139 l 1042 139 l 1042 0 l 833 0 l 833 -139 l 417 -139 l 417 0 l 208 0 l 208 139 m 586 1528 l 586 1250 l 308 1250 l 308 1528 l 586 1528 m 933 1528 l 933 1250 l 656 1250 l 656 1528 l 933 1528 m 556 694 l 417 694 l 417 417 l 556 417 l 556 278 l 694 278 l 694 417 l 833 417 l 833 694 l 694 694 l 694 833 l 556 833 l 556 694 z "},"÷":{"ha":804,"x_min":69,"x_max":694,"o":"m 69 625 l 694 625 l 694 347 l 69 347 l 69 625 m 485 694 l 278 694 l 278 903 l 486 903 l 485 694 m 486 278 l 486 69 l 278 69 l 278 278 l 486 278 z "},"ø":{"ha":1242,"x_min":69,"x_max":1181,"o":"m 1111 1181 l 1111 1111 l 1042 1111 l 1042 833 l 1181 833 l 1181 139 l 1042 139 l 1042 0 l 833 0 l 833 -139 l 486 -139 l 486 -208 l 208 -208 l 208 -139 l 278 -139 l 278 0 l 208 0 l 208 139 l 69 139 l 69 833 l 208 833 l 208 972 l 486 972 l 486 1111 l 764 1111 l 764 972 l 833 972 l 833 1111 l 903 1111 l 903 1181 l 1111 1181 m 556 694 l 417 694 l 417 417 l 556 417 l 556 278 l 694 278 l 694 417 l 833 417 l 833 694 l 694 694 l 694 833 l 556 833 l 556 694 z "},"ù":{"ha":1250,"x_min":69,"x_max":1181,"o":"m 1181 1111 l 1181 139 l 1042 139 l 1042 0 l 764 0 l 764 -139 l 486 -139 l 486 0 l 69 0 l 69 972 l 208 972 l 208 1111 l 486 1111 l 486 486 l 556 486 l 556 347 l 694 347 l 694 486 l 764 486 l 764 1111 l 1181 1111 m 660 1250 l 590 1250 l 590 1319 l 521 1319 l 521 1389 l 451 1389 l 451 1458 l 382 1458 l 382 1597 l 660 1597 l 660 1528 l 729 1528 l 729 1458 l 799 1458 l 799 1319 l 868 1319 l 868 1181 l 660 1181 l 660 1250 z "},"ú":{"ha":1250,"x_min":69,"x_max":1181,"o":"m 1181 1111 l 1181 139 l 1042 139 l 1042 0 l 764 0 l 764 -139 l 486 -139 l 486 0 l 69 0 l 69 972 l 208 972 l 208 1111 l 486 1111 l 486 486 l 556 486 l 556 347 l 694 347 l 694 486 l 764 486 l 764 1111 l 1181 1111 m 382 1181 l 382 1319 l 451 1319 l 451 1458 l 521 1458 l 521 1528 l 590 1528 l 590 1597 l 868 1597 l 868 1458 l 799 1458 l 799 1389 l 729 1389 l 729 1319 l 660 1319 l 660 1250 l 590 1250 l 590 1181 l 382 1181 z "},"û":{"ha":1250,"x_min":69,"x_max":1181,"o":"m 1181 1111 l 1181 139 l 1042 139 l 1042 0 l 764 0 l 764 -139 l 486 -139 l 486 0 l 69 0 l 69 972 l 208 972 l 208 1111 l 486 1111 l 486 486 l 556 486 l 556 347 l 694 347 l 694 486 l 764 486 l 764 1111 l 1181 1111 m 417 1389 l 417 1458 l 486 1458 l 486 1528 l 556 1528 l 556 1597 l 694 1597 l 694 1528 l 764 1528 l 764 1458 l 833 1458 l 833 1389 l 903 1389 l 903 1250 l 833 1250 l 833 1181 l 764 1181 l 764 1250 l 694 1250 l 694 1389 l 556 1389 l 556 1250 l 486 1250 l 486 1181 l 417 1181 l 417 1250 l 347 1250 l 347 1389 l 417 1389 z "},"ü":{"ha":1250,"x_min":69,"x_max":1181,"o":"m 1181 1111 l 1181 139 l 1042 139 l 1042 0 l 764 0 l 764 -139 l 486 -139 l 486 0 l 69 0 l 69 972 l 208 972 l 208 1111 l 486 1111 l 486 486 l 556 486 l 556 347 l 694 347 l 694 486 l 764 486 l 764 1111 l 1181 1111 m 590 1528 l 590 1250 l 313 1250 l 313 1528 l 590 1528 m 938 1528 l 938 1250 l 660 1250 l 660 1528 l 938 1528 z "},"ý":{"ha":1000,"x_min":14,"x_max":986,"o":"m 986 1111 l 986 764 l 847 764 l 847 556 l 708 556 l 708 -139 l 431 -139 l 431 0 l 292 0 l 292 556 l 153 556 l 153 764 l 14 764 l 14 1111 l 361 1111 l 361 972 l 431 972 l 431 833 l 569 833 l 569 972 l 639 972 l 639 1111 l 986 1111 m 257 1181 l 257 1319 l 326 1319 l 326 1458 l 396 1458 l 396 1528 l 465 1528 l 465 1597 l 743 1597 l 743 1458 l 674 1458 l 674 1389 l 604 1389 l 604 1319 l 535 1319 l 535 1250 l 465 1250 l 465 1181 l 257 1181 z "},"þ":{"ha":1000,"x_min":69,"x_max":972,"o":"m 69 -139 l 69 1111 l 347 1111 l 347 903 l 694 903 l 694 764 l 833 764 l 833 625 l 972 625 l 972 347 l 833 347 l 833 208 l 694 208 l 694 69 l 347 69 l 347 -139 l 69 -139 m 625 347 l 625 417 l 694 417 l 694 556 l 625 556 l 625 625 l 347 625 l 347 347 l 625 347 z "},"ÿ":{"ha":1000,"x_min":14,"x_max":986,"o":"m 986 1111 l 986 764 l 847 764 l 847 556 l 708 556 l 708 -139 l 431 -139 l 431 0 l 292 0 l 292 556 l 153 556 l 153 764 l 14 764 l 14 1111 l 361 1111 l 361 972 l 431 972 l 431 833 l 569 833 l 569 972 l 639 972 l 639 1111 l 986 1111 m 465 1528 l 465 1250 l 188 1250 l 188 1528 l 465 1528 m 813 1528 l 813 1250 l 535 1250 l 535 1528 l 813 1528 z "},"Đ":{"ha":1382,"x_min":0,"x_max":1319,"o":"m 69 833 l 69 1111 l 1042 1111 l 1042 972 l 1181 972 l 1181 833 l 1319 833 l 1319 139 l 1181 139 l 1181 0 l 1042 0 l 1042 -139 l 208 -139 l 208 417 l 0 417 l 0 694 l 208 694 l 208 833 l 69 833 m 764 139 l 764 208 l 903 208 l 903 417 l 1042 417 l 1042 556 l 903 556 l 903 694 l 764 694 l 764 833 l 625 833 l 625 139 l 764 139 z "},"đ":{"ha":1382,"x_min":0,"x_max":1319,"o":"m 69 833 l 69 1111 l 1042 1111 l 1042 972 l 1181 972 l 1181 833 l 1319 833 l 1319 139 l 1181 139 l 1181 0 l 1042 0 l 1042 -139 l 208 -139 l 208 417 l 0 417 l 0 694 l 208 694 l 208 833 l 69 833 m 764 139 l 764 208 l 903 208 l 903 417 l 1042 417 l 1042 556 l 903 556 l 903 694 l 764 694 l 764 833 l 625 833 l 625 139 l 764 139 z "},"ı":{"ha":629,"x_min":69,"x_max":556,"o":"m 556 1042 l 556 -139 l 208 -139 l 208 0 l 69 0 l 69 1042 l 556 1042 z "},"Ł":{"ha":935,"x_min":-71,"x_max":903,"o":"m 208 1113 l 486 1113 l 486 764 l 556 764 l 556 833 l 625 833 l 625 556 l 556 556 l 556 486 l 486 486 l 486 278 l 764 278 l 764 417 l 903 417 l 903 -139 l 208 -139 l 208 0 l 69 0 l 69 417 l 0 417 l 0 347 l -71 347 l -71 625 l 0 625 l 0 694 l 69 694 l 69 972 l 208 972 l 208 1113 z "},"ł":{"ha":935,"x_min":-71,"x_max":903,"o":"m 208 1113 l 486 1113 l 486 764 l 556 764 l 556 833 l 625 833 l 625 556 l 556 556 l 556 486 l 486 486 l 486 278 l 764 278 l 764 417 l 903 417 l 903 -139 l 208 -139 l 208 0 l 69 0 l 69 417 l 0 417 l 0 347 l -71 347 l -71 625 l 0 625 l 0 694 l 69 694 l 69 972 l 208 972 l 208 1113 z "},"Œ":{"ha":1913,"x_min":69,"x_max":1875,"o":"m 556 694 l 417 694 l 417 417 l 556 417 l 556 278 l 694 278 l 694 417 l 833 417 l 833 694 l 694 694 l 694 833 l 556 833 l 556 694 m 1875 -139 l 1181 -139 l 1181 0 l 833 0 l 833 -139 l 417 -139 l 417 0 l 208 0 l 208 139 l 69 139 l 69 833 l 208 833 l 208 972 l 486 972 l 486 1111 l 764 1111 l 764 972 l 1181 972 l 1181 1111 l 1736 1111 l 1875 1113 l 1875 833 l 1736 833 l 1736 694 l 1389 694 l 1389 556 l 1667 556 l 1667 417 l 1389 417 l 1389 278 l 1736 278 l 1736 139 l 1875 139 l 1875 -139 z "},"œ":{"ha":1913,"x_min":69,"x_max":1875,"o":"m 556 694 l 417 694 l 417 417 l 556 417 l 556 278 l 694 278 l 694 417 l 833 417 l 833 694 l 694 694 l 694 833 l 556 833 l 556 694 m 1875 -139 l 1181 -139 l 1181 0 l 833 0 l 833 -139 l 417 -139 l 417 0 l 208 0 l 208 139 l 69 139 l 69 833 l 208 833 l 208 972 l 486 972 l 486 1111 l 764 1111 l 764 972 l 1181 972 l 1181 1111 l 1736 1111 l 1875 1113 l 1875 833 l 1736 833 l 1736 694 l 1389 694 l 1389 556 l 1667 556 l 1667 417 l 1389 417 l 1389 278 l 1736 278 l 1736 139 l 1875 139 l 1875 -139 z "},"Š":{"ha":1156,"x_min":81,"x_max":1122,"o":"m 81 278 l 358 278 l 358 417 l 219 417 l 219 556 l 81 556 l 81 972 l 219 972 l 219 1111 l 914 1111 l 914 972 l 1053 972 l 1053 833 l 914 833 l 914 694 l 567 694 l 567 556 l 844 556 l 844 417 l 983 417 l 983 278 l 1122 278 l 1122 139 l 983 139 l 983 0 l 844 0 l 844 -139 l 81 -139 l 81 278 m 300 1528 l 369 1528 l 369 1597 l 439 1597 l 439 1528 l 508 1528 l 508 1389 l 647 1389 l 647 1528 l 717 1528 l 717 1597 l 786 1597 l 786 1528 l 856 1528 l 856 1389 l 786 1389 l 786 1319 l 717 1319 l 717 1250 l 647 1250 l 647 1181 l 508 1181 l 508 1250 l 439 1250 l 439 1319 l 369 1319 l 369 1389 l 300 1389 l 300 1528 z "},"š":{"ha":1156,"x_min":81,"x_max":1122,"o":"m 81 278 l 358 278 l 358 417 l 219 417 l 219 556 l 81 556 l 81 972 l 219 972 l 219 1111 l 914 1111 l 914 972 l 1053 972 l 1053 833 l 914 833 l 914 694 l 567 694 l 567 556 l 844 556 l 844 417 l 983 417 l 983 278 l 1122 278 l 1122 139 l 983 139 l 983 0 l 844 0 l 844 -139 l 81 -139 l 81 278 m 300 1528 l 369 1528 l 369 1597 l 439 1597 l 439 1528 l 508 1528 l 508 1389 l 647 1389 l 647 1528 l 717 1528 l 717 1597 l 786 1597 l 786 1528 l 856 1528 l 856 1389 l 786 1389 l 786 1319 l 717 1319 l 717 1250 l 647 1250 l 647 1181 l 508 1181 l 508 1250 l 439 1250 l 439 1319 l 369 1319 l 369 1389 l 300 1389 l 300 1528 z "},"Ÿ":{"ha":1000,"x_min":14,"x_max":986,"o":"m 986 1111 l 986 764 l 847 764 l 847 556 l 708 556 l 708 -139 l 431 -139 l 431 0 l 292 0 l 292 556 l 153 556 l 153 764 l 14 764 l 14 1111 l 361 1111 l 361 972 l 431 972 l 431 833 l 569 833 l 569 972 l 639 972 l 639 1111 l 986 1111 m 465 1528 l 465 1250 l 188 1250 l 188 1528 l 465 1528 m 813 1528 l 813 1250 l 535 1250 l 535 1528 l 813 1528 z "},"Ž":{"ha":1089,"x_min":54,"x_max":1026,"o":"m 1026 694 l 888 694 l 888 556 l 749 556 l 749 417 l 610 417 l 610 278 l 888 278 l 888 139 l 1026 139 l 1026 -139 l 193 -139 l 193 0 l 54 0 l 54 347 l 193 347 l 193 486 l 332 486 l 332 625 l 471 625 l 471 764 l 54 764 l 54 972 l 193 972 l 193 1111 l 1026 1111 l 1026 694 m 267 1528 l 336 1528 l 336 1597 l 406 1597 l 406 1528 l 475 1528 l 475 1389 l 614 1389 l 614 1528 l 683 1528 l 683 1597 l 753 1597 l 753 1528 l 822 1528 l 822 1389 l 753 1389 l 753 1319 l 683 1319 l 683 1250 l 614 1250 l 614 1181 l 475 1181 l 475 1250 l 406 1250 l 406 1319 l 336 1319 l 336 1389 l 267 1389 l 267 1528 z "},"ž":{"ha":1089,"x_min":54,"x_max":1026,"o":"m 1026 694 l 888 694 l 888 556 l 749 556 l 749 417 l 610 417 l 610 278 l 888 278 l 888 139 l 1026 139 l 1026 -139 l 193 -139 l 193 0 l 54 0 l 54 347 l 193 347 l 193 486 l 332 486 l 332 625 l 471 625 l 471 764 l 54 764 l 54 972 l 193 972 l 193 1111 l 1026 1111 l 1026 694 m 267 1528 l 336 1528 l 336 1597 l 406 1597 l 406 1528 l 475 1528 l 475 1389 l 614 1389 l 614 1528 l 683 1528 l 683 1597 l 753 1597 l 753 1528 l 822 1528 l 822 1389 l 753 1389 l 753 1319 l 683 1319 l 683 1250 l 614 1250 l 614 1181 l 475 1181 l 475 1250 l 406 1250 l 406 1319 l 336 1319 l 336 1389 l 267 1389 l 267 1528 z "},"ƒ":{"ha":854,"x_min":69,"x_max":833,"o":"m 69 69 l 208 69 l 208 417 l 139 417 l 139 625 l 208 625 l 208 972 l 347 972 l 347 1111 l 694 1111 l 694 972 l 833 972 l 833 694 l 694 694 l 694 764 l 556 764 l 556 625 l 694 625 l 694 417 l 556 417 l 556 -139 l 417 -139 l 417 -278 l 69 -278 l 69 69 z "},"ˆ":{"ha":697,"x_min":69,"x_max":625,"o":"m 139 1389 l 139 1458 l 208 1458 l 208 1528 l 278 1528 l 278 1597 l 417 1597 l 417 1528 l 486 1528 l 486 1458 l 556 1458 l 556 1389 l 625 1389 l 625 1250 l 556 1250 l 556 1181 l 486 1181 l 486 1250 l 417 1250 l 417 1389 l 278 1389 l 278 1250 l 208 1250 l 208 1181 l 139 1181 l 139 1250 l 69 1250 l 69 1389 l 139 1389 z "},"ˇ":{"ha":701,"x_min":69,"x_max":625,"o":"m 69 1528 l 139 1528 l 139 1597 l 208 1597 l 208 1528 l 278 1528 l 278 1389 l 417 1389 l 417 1528 l 486 1528 l 486 1597 l 556 1597 l 556 1528 l 625 1528 l 625 1389 l 556 1389 l 556 1319 l 486 1319 l 486 1250 l 417 1250 l 417 1181 l 278 1181 l 278 1250 l 208 1250 l 208 1319 l 139 1319 l 139 1389 l 69 1389 l 69 1528 z "},"˘":{"ha":665,"x_min":69,"x_max":486,"o":"m 486 1597 l 486 1250 l 417 1250 l 417 1181 l 139 1181 l 139 1250 l 69 1250 l 69 1597 l 208 1597 l 208 1389 l 347 1389 l 347 1597 l 486 1597 z "},"˙":{"ha":417,"x_min":69,"x_max":347,"o":"m 347 1528 l 347 1250 l 69 1250 l 69 1528 l 347 1528 z "},"˚":{"ha":626,"x_min":69,"x_max":556,"o":"m 208 1319 l 417 1319 l 417 1458 l 208 1458 l 208 1319 m 486 1181 l 139 1181 l 139 1250 l 69 1250 l 69 1528 l 139 1528 l 139 1597 l 486 1597 l 486 1528 l 556 1528 l 556 1250 l 486 1250 l 486 1181 z "},"˛":{"ha":699,"x_min":139,"x_max":556,"o":"m 556 -625 l 208 -625 l 208 -556 l 139 -556 l 139 -347 l 278 -347 l 278 -208 l 486 -208 l 486 -417 l 417 -417 l 417 -486 l 556 -486 l 556 -625 z "},"˜":{"ha":764,"x_min":69,"x_max":694,"o":"m 69 1181 l 69 1319 l 139 1319 l 139 1458 l 208 1458 l 208 1597 l 347 1597 l 347 1458 l 417 1458 l 417 1389 l 486 1389 l 486 1528 l 556 1528 l 556 1597 l 694 1597 l 694 1389 l 625 1389 l 625 1250 l 556 1250 l 556 1181 l 417 1181 l 417 1250 l 347 1250 l 347 1319 l 278 1319 l 278 1181 l 69 1181 z "},"˝":{"ha":1113,"x_min":69,"x_max":972,"o":"m 69 1181 l 69 1319 l 139 1319 l 139 1458 l 208 1458 l 208 1528 l 278 1528 l 278 1597 l 556 1597 l 556 1458 l 625 1458 l 625 1528 l 694 1528 l 694 1597 l 972 1597 l 972 1458 l 903 1458 l 903 1389 l 833 1389 l 833 1319 l 764 1319 l 764 1250 l 694 1250 l 694 1181 l 486 1181 l 486 1319 l 556 1319 l 556 1458 l 486 1458 l 486 1389 l 417 1389 l 417 1319 l 347 1319 l 347 1250 l 278 1250 l 278 1181 l 69 1181 z "},"μ":{"ha":1196,"x_min":100,"x_max":1142,"o":"m 100 1111 l 378 1111 l 378 557 l 447 556 l 447 417 l 656 417 l 656 556 l 725 556 l 725 1111 l 1003 1111 l 1003 208 l 1142 208 l 1142 0 l 725 0 l 725 208 l 656 208 l 656 139 l 447 139 l 447 208 l 378 208 l 378 -139 l 100 -139 l 100 1111 z "},"–":{"ha":790,"x_min":69,"x_max":694,"o":"m 694 347 l 69 347 l 69 625 l 694 625 l 694 347 z "},"—":{"ha":918,"x_min":69,"x_max":833,"o":"m 833 347 l 69 347 l 69 625 l 833 625 l 833 347 z "},"‘":{"ha":410,"x_min":69,"x_max":347,"o":"m 278 1181 l 278 903 l 347 903 l 347 833 l 139 833 l 139 903 l 69 903 l 69 1181 l 278 1181 z "},"’":{"ha":417,"x_min":69,"x_max":347,"o":"m 139 833 l 139 1111 l 69 1111 l 69 1181 l 278 1181 l 278 1111 l 347 1111 l 347 833 l 139 833 z "},"‚":{"ha":372,"x_min":69,"x_max":347,"o":"m 139 -139 l 139 139 l 69 139 l 69 208 l 278 208 l 278 139 l 347 139 l 347 -139 l 139 -139 z "},"“":{"ha":731,"x_min":69,"x_max":694,"o":"m 278 1181 l 278 903 l 347 903 l 347 833 l 139 833 l 139 903 l 69 903 l 69 1181 l 278 1181 m 625 1181 l 625 903 l 694 903 l 694 833 l 486 833 l 486 903 l 417 903 l 417 1181 l 625 1181 z "},"”":{"ha":756,"x_min":69,"x_max":694,"o":"m 139 833 l 139 1111 l 69 1111 l 69 1181 l 278 1181 l 278 1111 l 347 1111 l 347 833 l 139 833 m 488 833 l 488 1111 l 418 1111 l 418 1181 l 625 1181 l 625 1111 l 694 1111 l 694 833 l 488 833 z "},"„":{"ha":757,"x_min":69,"x_max":694,"o":"m 139 -139 l 139 139 l 69 139 l 69 208 l 278 208 l 278 139 l 347 139 l 347 -139 l 139 -139 m 486 -139 l 486 139 l 417 139 l 417 208 l 625 208 l 625 139 l 694 139 l 694 -139 l 486 -139 z "},"†":{"ha":556,"x_min":69,"x_max":486,"o":"m 347 1111 l 347 903 l 486 903 l 486 764 l 347 764 l 347 -139 l 208 -139 l 208 764 l 69 764 l 69 903 l 208 903 l 208 1111 l 347 1111 z "},"‡":{"ha":568,"x_min":69,"x_max":486,"o":"m 347 1111 l 347 903 l 486 903 l 486 764 l 347 764 l 347 208 l 486 208 l 486 69 l 347 69 l 347 -139 l 208 -139 l 208 69 l 69 69 l 69 208 l 208 208 l 208 764 l 69 764 l 69 903 l 208 903 l 208 1111 l 347 1111 z "},"•":{"ha":833,"x_min":69,"x_max":764,"o":"m 488 903 l 488 764 l 626 764 l 626 625 l 764 625 l 764 486 l 626 486 l 626 347 l 488 347 l 488 208 l 349 208 l 349 347 l 210 347 l 210 486 l 69 486 l 69 625 l 210 625 l 210 764 l 349 764 l 349 903 l 488 903 z "},"…":{"ha":1879,"x_min":0,"x_max":1808,"o":"m 347 347 l 347 278 l 486 278 l 486 139 l 556 139 l 556 0 l 486 0 l 486 -139 l 347 -139 l 347 -208 l 208 -208 l 208 -139 l 69 -139 l 69 0 l 0 0 l 0 139 l 69 139 l 69 278 l 208 278 l 208 347 l 347 347 m 974 347 l 974 278 l 1113 278 l 1113 139 l 1182 139 l 1182 0 l 1113 0 l 1113 -139 l 974 -139 l 974 -208 l 835 -208 l 835 -139 l 696 -139 l 696 0 l 626 0 l 626 139 l 696 139 l 696 278 l 835 278 l 835 347 l 974 347 m 1600 347 l 1600 278 l 1739 278 l 1739 139 l 1808 139 l 1808 0 l 1739 0 l 1739 -139 l 1600 -139 l 1600 -208 l 1461 -208 l 1461 -139 l 1322 -139 l 1322 0 l 1253 0 l 1253 139 l 1322 139 l 1322 278 l 1461 278 l 1461 347 l 1600 347 z "},"‰":{"ha":1951,"x_min":69,"x_max":1875,"o":"m 1181 0 l 1319 0 l 1319 139 l 1181 139 l 1181 0 m 1528 488 l 1667 488 l 1667 626 l 1528 626 l 1528 488 m 278 835 l 417 835 l 417 974 l 278 974 l 278 835 m 1319 347 l 1319 278 l 1458 278 l 1458 139 l 1528 139 l 1528 0 l 1458 0 l 1458 -139 l 1319 -139 l 1319 -208 l 1181 -208 l 1181 -139 l 1042 -139 l 1042 0 l 972 0 l 972 139 l 1042 139 l 1042 278 l 1181 278 l 1181 347 l 1319 347 m 1181 1113 l 1181 764 l 1042 764 l 1042 556 l 903 556 l 903 278 l 764 278 l 764 69 l 694 69 l 694 -139 l 417 -139 l 417 139 l 486 139 l 486 417 l 625 417 l 625 625 l 764 625 l 764 903 l 903 903 l 903 1113 l 1181 1113 m 1667 835 l 1667 765 l 1806 765 l 1806 626 l 1875 626 l 1875 488 l 1806 488 l 1806 349 l 1667 349 l 1667 279 l 1528 279 l 1528 349 l 1389 349 l 1389 488 l 1319 488 l 1319 626 l 1389 626 l 1389 765 l 1528 765 l 1528 835 l 1667 835 m 417 1182 l 417 1113 l 556 1113 l 556 974 l 625 974 l 625 835 l 556 835 l 556 696 l 417 696 l 417 626 l 278 626 l 278 696 l 139 696 l 139 835 l 69 835 l 69 974 l 139 974 l 139 1113 l 278 1113 l 278 1182 l 417 1182 z "},"‹":{"ha":567,"x_min":71,"x_max":486,"o":"m 486 208 l 347 208 l 347 278 l 139 278 l 139 417 l 71 417 l 71 556 l 139 556 l 139 694 l 347 694 l 347 764 l 486 764 l 486 556 l 347 556 l 347 417 l 486 417 l 486 208 z "},"›":{"ha":626,"x_min":71,"x_max":486,"o":"m 210 417 l 210 556 l 71 556 l 71 764 l 210 764 l 210 694 l 418 694 l 418 556 l 486 556 l 486 417 l 418 417 l 418 278 l 210 278 l 210 208 l 71 208 l 71 417 l 210 417 z "},"⁄":{"ha":917,"x_min":69,"x_max":833,"o":"m 833 1113 l 833 764 l 694 764 l 694 556 l 556 556 l 556 278 l 417 278 l 417 69 l 347 69 l 347 -139 l 69 -139 l 69 139 l 139 139 l 139 417 l 278 417 l 278 625 l 417 625 l 417 903 l 556 903 l 556 1113 l 833 1113 z "},"€":{"ha":1092,"x_min":69,"x_max":1042,"o":"m 1042 69 l 903 69 l 903 -69 l 694 -69 l 694 -139 l 347 -139 l 347 0 l 208 0 l 208 347 l 69 346 l 69 485 l 208 486 l 208 556 l 69 554 l 69 693 l 208 694 l 208 833 l 347 833 l 347 972 l 486 972 l 486 1111 l 764 1111 l 764 972 l 1042 972 l 1042 694 l 903 694 l 903 764 l 556 764 l 556 694 l 694 694 l 694 556 l 556 556 l 556 486 l 694 486 l 694 347 l 556 347 l 556 278 l 625 278 l 625 208 l 764 208 l 764 278 l 903 278 l 903 417 l 1042 417 l 1042 69 z "},"™":{"ha":1947,"x_min":69,"x_max":1876,"o":"m 903 417 l 903 1042 l 833 1042 l 833 833 l 625 833 l 625 417 l 278 417 l 278 833 l 69 833 l 69 1111 l 1181 1111 l 1181 1042 l 1250 1042 l 1250 903 l 1319 903 l 1319 833 l 1458 833 l 1458 903 l 1528 903 l 1528 1042 l 1597 1042 l 1597 1111 l 1876 1111 l 1876 417 l 1597 417 l 1597 764 l 1528 764 l 1528 625 l 1458 625 l 1458 556 l 1319 556 l 1319 625 l 1250 625 l 1250 764 l 1181 764 l 1181 417 l 903 417 z "},"−":{"ha":826,"x_min":69,"x_max":694,"o":"m 694 347 l 69 347 l 69 625 l 694 625 l 694 347 z "},"ﬁ":{"ha":1511,"x_min":69,"x_max":1438,"o":"m 208 -139 l 208 0 l 69 0 l 69 972 l 208 972 l 208 1111 l 833 1111 l 833 694 l 486 694 l 486 556 l 694 556 l 694 278 l 486 278 l 486 -139 l 208 -139 m 1438 764 l 1438 -139 l 1090 -139 l 1090 0 l 951 0 l 951 764 l 1438 764 m 951 1042 l 1090 1042 l 1090 1181 l 1299 1181 l 1299 1042 l 1438 1042 l 1438 833 l 951 833 l 951 1042 z "},"ﬂ":{"ha":1817,"x_min":69,"x_max":1785,"o":"m 208 -139 l 208 0 l 69 0 l 69 972 l 208 972 l 208 1111 l 833 1111 l 833 694 l 486 694 l 486 556 l 694 556 l 694 278 l 486 278 l 486 -139 l 208 -139 m 1090 1113 l 1368 1113 l 1368 278 l 1646 278 l 1646 417 l 1785 417 l 1785 -139 l 1090 -139 l 1090 0 l 951 0 l 951 972 l 1090 972 l 1090 1113 z "}}}
